<svg width="186" height="180" viewBox="0 0 186 180" fill="none" xmlns="http://www.w3.org/2000/svg">
<path d="M184.631 156.872H1.36477C1.25404 156.872 1.14784 156.828 1.06955 156.75C0.991252 156.672 0.947266 156.565 0.947266 156.455C0.947266 156.344 0.991252 156.238 1.06955 156.159C1.14784 156.081 1.25404 156.037 1.36477 156.037H184.631C184.741 156.037 184.847 156.081 184.926 156.159C185.004 156.238 185.048 156.344 185.048 156.455C185.048 156.565 185.004 156.672 184.926 156.75C184.847 156.828 184.741 156.872 184.631 156.872Z" fill="#D1D3D4"/>
<path d="M165.366 62.6426H157.434V173.89H165.366V62.6426Z" fill="white"/>
<path d="M165.368 174.309H157.435C157.324 174.309 157.218 174.265 157.14 174.186C157.062 174.108 157.018 174.002 157.018 173.891V62.6441C157.018 62.5333 157.062 62.4271 157.14 62.3488C157.218 62.2705 157.324 62.2266 157.435 62.2266H165.368C165.478 62.2287 165.583 62.2734 165.66 62.3512C165.738 62.4291 165.783 62.534 165.785 62.6441V173.916C165.779 174.023 165.732 174.122 165.654 174.195C165.577 174.268 165.474 174.309 165.368 174.309ZM157.853 173.474H164.95V63.0616H157.853V173.474Z" fill="#D1D3D4"/>
<path d="M28.5673 62.6426H20.6348V173.89H28.5673V62.6426Z" fill="white"/>
<path d="M28.5609 174.309H20.6284C20.5177 174.309 20.4115 174.265 20.3332 174.186C20.2549 174.108 20.2109 174.002 20.2109 173.891V62.6441C20.2131 62.534 20.2577 62.4291 20.3356 62.3512C20.4134 62.2734 20.5184 62.2287 20.6284 62.2266H28.5609C28.6717 62.2266 28.7779 62.2705 28.8562 62.3488C28.9345 62.4271 28.9784 62.5333 28.9784 62.6441V173.916C28.972 174.023 28.9253 174.122 28.8476 174.195C28.77 174.268 28.6675 174.309 28.5609 174.309ZM21.0459 173.474H28.1434V63.0616H21.0459V173.474Z" fill="#D1D3D4"/>
<path d="M174.611 87.3652H11.3848V106.395H174.611V87.3652Z" fill="white"/>
<path d="M174.61 106.814H11.3843C11.2736 106.814 11.1674 106.77 11.0891 106.692C11.0108 106.613 10.9668 106.507 10.9668 106.396V87.3667C10.9668 87.256 11.0108 87.1498 11.0891 87.0715C11.1674 86.9932 11.2736 86.9492 11.3843 86.9492H174.61C174.721 86.9492 174.827 86.9932 174.905 87.0715C174.984 87.1498 175.028 87.256 175.028 87.3667V106.396C175.028 106.507 174.984 106.613 174.905 106.692C174.827 106.77 174.721 106.814 174.61 106.814ZM11.7851 105.979H174.193V87.7842H11.8018L11.7851 105.979Z" fill="#D1D3D4"/>
<path d="M174.611 61.3828H11.3848V80.4125H174.611V61.3828Z" fill="white"/>
<path d="M174.61 80.8275H11.3843C11.2736 80.8275 11.1674 80.7835 11.0891 80.7053C11.0108 80.627 10.9668 80.5208 10.9668 80.41V61.3804C10.9668 61.2697 11.0108 61.1635 11.0891 61.0852C11.1674 61.0069 11.2736 60.9629 11.3843 60.9629H174.61C174.721 60.9629 174.827 61.0069 174.905 61.0852C174.984 61.1635 175.028 61.2697 175.028 61.3804V80.3933C175.03 80.4496 175.021 80.5056 175.001 80.5582C174.981 80.6108 174.95 80.6589 174.911 80.6994C174.872 80.74 174.826 80.7722 174.774 80.7942C174.722 80.8163 174.666 80.8276 174.61 80.8275ZM11.7851 79.9925H174.193V61.7979H11.8018L11.7851 79.9925Z" fill="#D1D3D4"/>
<path d="M174.611 118.303H11.3848V125.651H174.611V118.303Z" fill="white"/>
<path d="M174.61 126.07H11.3843C11.2736 126.07 11.1674 126.026 11.0891 125.947C11.0108 125.869 10.9668 125.763 10.9668 125.652V118.304C10.9668 118.193 11.0108 118.087 11.0891 118.009C11.1674 117.931 11.2736 117.887 11.3843 117.887H174.61C174.721 117.887 174.827 117.931 174.905 118.009C174.984 118.087 175.028 118.193 175.028 118.304V125.652C175.028 125.763 174.984 125.869 174.905 125.947C174.827 126.026 174.721 126.07 174.61 126.07ZM11.7851 125.235H174.193V118.722H11.8018L11.7851 125.235Z" fill="#D1D3D4"/>
<path d="M51.0321 72.3789L42.4232 108.058C42.2032 109.531 41.5624 110.908 40.5779 112.025C39.5317 113.03 38.2856 113.804 36.9206 114.296C35.0752 115.047 33.305 115.131 31.5933 116.25C31.4021 116.347 31.2352 116.486 31.1051 116.657C30.975 116.827 30.885 117.025 30.8418 117.235C30.8443 117.424 30.8985 117.609 30.9986 117.769C31.0987 117.93 31.2409 118.06 31.4096 118.145C31.7526 118.308 32.1243 118.402 32.5035 118.421C37.6137 119.014 42.657 119.131 47.5835 117.527C50.5812 116.559 51.3912 114.947 52.1427 111.874L62.4632 73.957" fill="white"/>
<path d="M38.6711 119.264C36.5938 119.249 34.5193 119.11 32.4587 118.846C32.0206 118.825 31.5914 118.714 31.1979 118.521C30.9547 118.398 30.7512 118.209 30.6108 117.975C30.4705 117.742 30.399 117.474 30.4046 117.201C30.4528 116.927 30.5628 116.667 30.7262 116.441C30.8897 116.216 31.1024 116.03 31.3482 115.899C32.3942 115.243 33.5474 114.777 34.755 114.521C35.433 114.356 36.0997 114.147 36.7506 113.895C38.0597 113.422 39.2567 112.682 40.266 111.724C41.1967 110.66 41.7999 109.349 42.0027 107.95L50.6116 72.2784C50.6382 72.1676 50.7076 72.072 50.8047 72.0125C50.9018 71.953 51.0186 71.9345 51.1293 71.9611C51.24 71.9877 51.3357 72.0571 51.3952 72.1542C51.4547 72.2513 51.4732 72.368 51.4466 72.4788L42.8377 108.158C42.6032 109.709 41.9246 111.159 40.8838 112.333C39.7918 113.378 38.4954 114.185 37.0763 114.705C36.3896 114.969 35.6867 115.189 34.972 115.364C33.8603 115.595 32.7976 116.019 31.8325 116.617C31.5987 116.776 31.2814 117.018 31.2647 117.268C31.274 117.376 31.3113 117.48 31.3727 117.569C31.4342 117.658 31.5178 117.73 31.6154 117.778C31.9104 117.91 32.2275 117.987 32.5506 118.003C36.9928 118.521 42.2282 118.838 47.4469 117.126C50.2191 116.224 50.979 114.813 51.7138 111.782L62.0427 73.8482C62.0803 73.7465 62.1545 73.6625 62.2508 73.6127C62.3472 73.563 62.4586 73.551 62.5633 73.5793C62.6679 73.6076 62.7583 73.674 62.8164 73.7654C62.8746 73.8569 62.8965 73.9668 62.8777 74.0736L52.5488 111.991C51.7639 115.214 50.8788 116.934 47.7142 117.945C44.7876 118.856 41.736 119.301 38.6711 119.264Z" fill="#231F20"/>
<path d="M125.67 156.455C125.67 156.455 126.129 172.078 127.181 172.153C128.233 172.228 149.651 180.194 151.563 177.823C153.233 175.768 152.19 170.967 148.332 169.623C142.971 167.744 138.997 162.609 138.997 162.609L138.504 152.422" fill="white"/>
<path d="M149.87 178.689C146.572 178.689 139.85 176.711 130.515 173.679C128.904 173.145 127.375 172.644 127.175 172.619C126.749 172.619 125.739 172.51 125.28 156.495C125.277 156.439 125.286 156.382 125.306 156.329C125.326 156.276 125.356 156.227 125.395 156.186C125.434 156.145 125.481 156.112 125.533 156.089C125.585 156.066 125.64 156.054 125.697 156.053C125.81 156.052 125.919 156.096 126.002 156.173C126.084 156.251 126.133 156.357 126.14 156.47C126.34 163.317 126.858 170.799 127.392 171.784C127.776 171.859 128.678 172.16 130.816 172.861C135.55 174.423 149.979 179.182 151.265 177.587C151.621 177.038 151.847 176.414 151.923 175.764C152 175.114 151.926 174.455 151.707 173.838C151.477 172.972 151.04 172.176 150.434 171.517C149.827 170.858 149.069 170.356 148.225 170.056C142.806 168.16 138.857 163.117 138.698 162.9C138.639 162.833 138.606 162.747 138.606 162.657L138.105 152.479C138.101 152.365 138.141 152.254 138.218 152.17C138.294 152.085 138.401 152.034 138.514 152.028C138.572 152.019 138.631 152.023 138.687 152.04C138.743 152.057 138.794 152.086 138.837 152.125C138.88 152.164 138.914 152.213 138.936 152.267C138.959 152.321 138.968 152.379 138.965 152.437L139.458 162.457C140.051 163.184 143.75 167.551 148.518 169.221C149.491 169.568 150.365 170.146 151.066 170.905C151.767 171.664 152.273 172.582 152.542 173.579C152.798 174.329 152.876 175.128 152.77 175.914C152.665 176.699 152.378 177.449 151.933 178.105C151.651 178.344 151.321 178.52 150.965 178.621C150.609 178.722 150.236 178.745 149.87 178.689Z" fill="#231F20"/>
<path d="M74.0256 156.453C74.0256 156.453 65.3917 157.597 61.9599 159.317C61.9599 159.317 62.9368 167.4 53.1339 172.301C53.1339 172.301 49.9526 175.249 51.4639 178.188C52.9753 181.127 66.6776 177.57 70.9445 175.249C73.4782 173.884 75.8269 172.2 77.9334 170.239L74.0256 156.453Z" fill="white"/>
<path d="M54.861 179.76C54.0522 179.781 53.2446 179.682 52.4646 179.467C52.1669 179.397 51.8868 179.267 51.6412 179.085C51.3957 178.902 51.19 178.672 51.0367 178.407C49.4335 175.209 52.7067 172.144 52.8403 172.011L52.9405 171.944C62.3426 167.243 61.5411 159.469 61.5327 159.419C61.52 159.33 61.5357 159.239 61.5777 159.16C61.6197 159.08 61.6858 159.016 61.7665 158.976C65.2234 157.248 73.6068 156.121 73.9659 156.079C74.0682 156.063 74.1728 156.086 74.2592 156.143C74.3456 156.2 74.4077 156.288 74.4335 156.388L78.3078 170.157C78.3294 170.231 78.3299 170.309 78.3092 170.383C78.2886 170.456 78.2476 170.523 78.191 170.575C76.064 172.578 73.6834 174.293 71.1101 175.676C67.9956 177.321 59.7708 179.76 54.861 179.76ZM53.3831 172.687C53.0324 173.03 50.5858 175.576 51.8049 178.023C51.9099 178.181 52.045 178.317 52.2027 178.423C52.3603 178.529 52.5372 178.603 52.7234 178.641C56.4225 179.81 67.1856 176.804 70.701 174.892C73.1115 173.574 75.3543 171.97 77.381 170.115L73.6819 156.956C72.0119 157.19 65.4405 158.2 62.3844 159.603C62.4253 161.154 62.1585 162.698 61.5995 164.145C60.706 166.592 58.535 170.065 53.3831 172.662V172.687Z" fill="#231F20"/>
<path d="M70.6512 95.7827C70.6512 95.7827 49.701 104.609 46.0019 116.658C42.4866 128.106 59.9799 162.583 59.9799 162.583L75.0933 160.078C75.0933 160.078 67.1107 125.584 67.7871 123.814C68.4634 122.043 84.0529 117.559 93.1794 118.261C102.306 118.962 119.14 121.968 119.14 121.968L124.467 160.737L141.935 158.232C141.935 158.232 139.756 113.794 133.502 104.675C127.247 95.5572 112.627 94.5469 112.627 94.5469L70.6512 95.7827Z" fill="#231F20"/>
<path d="M59.9807 163.06C59.9026 163.059 59.8263 163.037 59.76 162.995C59.6938 162.954 59.6401 162.896 59.6049 162.826C58.8952 161.415 42.0699 128.048 45.602 116.575C47.1634 111.482 51.8394 106.372 59.488 101.387C62.9923 99.1102 66.6724 97.1166 70.4933 95.4247C70.5427 95.413 70.5942 95.413 70.6436 95.4247L112.594 94.1973C113.245 94.1973 127.582 95.3078 133.845 104.501C140.107 113.695 142.262 156.38 142.353 158.183C142.356 158.286 142.322 158.386 142.255 158.465C142.189 158.543 142.096 158.595 141.994 158.609L124.526 161.156C124.472 161.165 124.417 161.164 124.364 161.151C124.31 161.138 124.26 161.115 124.216 161.082C124.173 161.049 124.136 161.007 124.109 160.96C124.082 160.912 124.065 160.86 124.059 160.805L118.773 122.337C116.477 121.928 101.489 119.322 93.1552 118.679C83.9702 117.978 68.7398 122.554 68.172 123.982C67.7545 125.435 72.347 146.351 75.5033 160.054C75.5258 160.166 75.5049 160.282 75.4449 160.379C75.4118 160.426 75.3696 160.466 75.3208 160.496C75.272 160.526 75.2177 160.546 75.161 160.555L60.0475 163.06H59.9807ZM70.7438 96.2597C69.4162 96.8359 49.8688 105.445 46.3952 116.851C43.1387 127.48 58.5862 158.952 60.2145 162.216L74.6266 159.803C73.0818 153.123 66.7358 125.418 67.4289 123.673C68.2639 121.535 84.4295 117.176 93.2471 117.828C102.29 118.521 119.082 121.51 119.249 121.544C119.336 121.558 119.416 121.6 119.477 121.663C119.539 121.726 119.579 121.807 119.591 121.894L124.86 160.246L141.56 157.816C141.318 153.482 138.988 113.369 133.21 104.885C127.181 96.0343 112.786 94.9488 112.644 94.9404L70.7438 96.2597Z" fill="#231F20"/>
<path d="M105.239 38.7277C105.239 38.7277 65.7431 37.7925 58.5454 45.1656C51.3477 52.5386 48.1914 77.288 48.1914 77.288L64.4656 81.9974L67.8056 69.7396L70.6112 95.7833L112.612 94.5892L110.332 68.5539L125.671 63.6942C125.671 63.6942 118.048 42.193 105.239 38.7277Z" fill="#68E1FD"/>
<path d="M100.128 24.3417C100.128 24.3417 104.595 15.4155 102.9 13.0859C101.205 10.7562 100.053 11.5996 100.045 11.6079C101.848 10.3053 99.7023 7.62495 98.5416 6.7148C97.6282 6.04727 96.6132 5.5313 95.5356 5.18675C92.9006 4.13581 90.0972 3.57004 87.2608 3.51675C84.412 3.47881 81.633 4.39925 79.37 6.1303C75.9048 8.9359 74.7942 12.4847 75.195 16.8183C75.4622 19.9162 76.4058 23.0057 76.5895 26.0451C80.1383 26.4041 83.7204 26.8801 87.3192 26.9302C90.1415 27.0137 98.4665 27.6483 100.128 24.3417Z" fill="white"/>
<path d="M91.0933 27.4706C90.0245 27.4706 89.0225 27.4706 88.1875 27.4038H87.2773C84.3465 27.3286 81.4324 27.028 78.56 26.7274L76.5142 26.5187C76.4112 26.5072 76.3156 26.46 76.2439 26.3852C76.1721 26.3105 76.1289 26.2129 76.1217 26.1095C75.9899 24.5097 75.7556 22.9199 75.4204 21.35C75.1157 19.8765 74.8872 18.3882 74.7357 16.8911C74.3265 12.0982 75.7126 8.54115 79.0944 5.83575C81.434 4.03987 84.3115 3.08659 87.2607 3.13035C90.1436 3.17864 92.9945 3.74428 95.6775 4.80035C96.8073 5.1566 97.8749 5.68618 98.8421 6.37015C99.769 7.0966 101.23 8.8167 101.205 10.328C101.201 10.5837 101.147 10.8361 101.047 11.0712C101.984 11.3633 102.78 11.9905 103.284 12.833C105.029 15.2295 101.305 22.995 100.545 24.523C99.2512 27.0531 94.784 27.4706 91.0933 27.4706ZM76.9567 25.667L78.6267 25.8423C81.4574 26.1429 84.3882 26.4435 87.2773 26.5103H88.1959C91.2353 26.6189 98.3411 26.8694 99.7272 24.1139C101.464 20.6069 103.652 14.8454 102.533 13.309C101.414 11.7726 100.571 11.7392 100.27 11.9229C100.175 11.9842 100.061 12.0063 99.9499 11.9845C99.8392 11.9627 99.7414 11.8987 99.6771 11.806C99.6451 11.7611 99.6222 11.7104 99.6099 11.6566C99.5976 11.6029 99.5961 11.5472 99.6054 11.4929C99.6147 11.4385 99.6347 11.3866 99.6642 11.34C99.6937 11.2934 99.7321 11.2531 99.7773 11.2215C99.9344 11.1194 100.063 10.9796 100.152 10.8147C100.241 10.6499 100.288 10.4653 100.287 10.2779C100.287 9.15905 99.0926 7.67275 98.2576 7.0131C97.3788 6.37487 96.4034 5.88154 95.3685 5.55185C92.7862 4.51567 90.0345 3.96646 87.2523 3.93195C84.4992 3.88606 81.8108 4.76846 79.6204 6.43695C76.4808 8.9837 75.1949 12.2819 75.579 16.7575C75.7297 18.2211 75.9554 19.6759 76.2554 21.1162C76.5693 22.6197 76.8034 24.1388 76.9567 25.667Z" fill="#231F20"/>
<path d="M96.1211 25.5842C97.0229 21.7516 103.536 21.2673 102.885 25.818C102.721 27.4053 102.003 28.8839 100.856 29.993C100.273 30.5319 99.5443 30.8855 98.7607 31.0089C97.9772 31.1323 97.1746 31.0199 96.4551 30.6861" fill="white"/>
<path d="M98.0487 31.4957C97.4235 31.5019 96.8066 31.3527 96.2534 31.0615C96.1532 31.0068 96.0786 30.9147 96.0458 30.8053C96.0129 30.6959 96.0246 30.5779 96.0781 30.477C96.1035 30.4258 96.1391 30.3802 96.1829 30.3433C96.2266 30.3064 96.2774 30.2789 96.3323 30.2624C96.3871 30.246 96.4447 30.241 96.5015 30.2477C96.5583 30.2545 96.6132 30.2729 96.6626 30.3017C97.3042 30.5877 98.0156 30.6793 98.7087 30.565C99.4018 30.4507 100.046 30.1356 100.562 29.6587C101.634 28.6196 102.305 27.2359 102.457 25.7509C102.666 24.273 102.048 23.2459 100.787 23.0372C99.8885 22.8933 98.9679 23.0829 98.199 23.5704C97.43 24.0579 96.8658 24.8097 96.6125 25.6841C96.5859 25.7949 96.5164 25.8905 96.4193 25.95C96.3223 26.0095 96.2055 26.028 96.0948 26.0014C95.9841 25.9749 95.8884 25.9054 95.8289 25.8083C95.7694 25.7112 95.7509 25.5945 95.7775 25.4837C96.0769 24.3829 96.7781 23.4343 97.7427 22.8252C98.7073 22.2162 99.8653 21.9909 100.988 22.1938C102.366 22.4527 103.718 23.5549 103.384 25.8762C103.203 27.5631 102.435 29.1325 101.213 30.31C100.34 31.0804 99.2134 31.5025 98.0487 31.4957Z" fill="#231F20"/>
<path d="M80.0628 24.4494C79.7288 20.5249 73.3828 19.0887 73.3828 23.6895C73.3165 25.2836 73.8131 26.8502 74.7856 28.115C75.2828 28.7302 75.9508 29.1844 76.7056 29.4207C77.4605 29.6569 78.2683 29.6646 79.0274 29.4427" fill="white"/>
<path d="M77.8931 30.0188C77.2285 30.0044 76.5747 29.8479 75.9756 29.5598C75.3764 29.2718 74.8459 28.8589 74.4195 28.3488C73.3748 26.9974 72.8397 25.3211 72.9082 23.6144C72.9082 21.268 74.4195 20.3746 75.8223 20.2744C76.9688 20.2511 78.0824 20.6583 78.9434 21.4157C79.8044 22.1731 80.3503 23.2258 80.4733 24.3659C80.4964 24.4284 80.5047 24.4955 80.4977 24.5618C80.4907 24.6281 80.4686 24.6919 80.4329 24.7482C80.3973 24.8046 80.3492 24.852 80.2923 24.8867C80.2354 24.9215 80.1713 24.9427 80.1049 24.9486C80.0385 24.9546 79.9716 24.9452 79.9094 24.9212C79.8472 24.8971 79.7914 24.8591 79.7463 24.81C79.7011 24.7609 79.6679 24.7021 79.6492 24.6381C79.6305 24.5741 79.6267 24.5067 79.6383 24.441C79.5136 23.5324 79.0594 22.7012 78.362 22.1054C77.6647 21.5096 76.7727 21.1908 75.8557 21.2096C74.5364 21.268 73.7766 22.1531 73.7682 23.6478C73.7019 25.1488 74.1628 26.6258 75.0708 27.8228C75.512 28.3722 76.1053 28.7792 76.7766 28.9931C77.4479 29.207 78.1674 29.2181 78.845 29.0252C78.9558 28.9864 79.0774 28.9932 79.1831 29.0441C79.2888 29.095 79.3699 29.1858 79.4087 29.2966C79.4474 29.4073 79.4406 29.5289 79.3897 29.6346C79.3388 29.7403 79.248 29.8214 79.1373 29.8602C78.7346 29.9832 78.3139 30.0368 77.8931 30.0188Z" fill="#231F20"/>
<path d="M79.2129 43.8363C79.7931 45.0933 80.714 46.1625 81.8711 46.9226C83.0283 47.6827 84.3753 48.1033 85.7593 48.1366C87.1739 48.2784 88.6012 48.0514 89.902 47.4778C91.2029 46.9042 92.333 46.0035 93.1824 44.8634V42.1329V35.7869V29.8584L81.5759 29.0234L80.8411 33.8163L80.6073 35.3694L79.2129 43.8363Z" fill="white"/>
<path d="M86.4912 48.5973C86.2407 48.5973 85.9902 48.5973 85.723 48.5973C80.4207 48.2132 78.8676 44.1969 78.8008 44.0215C78.7799 43.9507 78.7799 43.8753 78.8008 43.8044L81.072 28.9748C81.0866 28.8669 81.1428 28.769 81.2286 28.7019C81.3144 28.6348 81.423 28.6039 81.5313 28.6158L93.1378 29.4508C93.2463 29.4572 93.3483 29.5048 93.4228 29.584C93.4973 29.6632 93.5387 29.7679 93.5386 29.8766L93.6304 44.9066C93.63 44.9892 93.6069 45.0701 93.5636 45.1404C92.7489 46.2421 91.6808 47.1314 90.4498 47.7331C89.2188 48.3348 87.861 48.6312 86.4912 48.5973ZM79.6358 43.7877C80.1987 44.9425 81.0697 45.9194 82.1527 46.6104C83.2357 47.3015 84.4886 47.6799 85.7731 47.7039C87.0911 47.8447 88.4232 47.6454 89.6423 47.125C90.8615 46.6046 91.9269 45.7805 92.737 44.7313L92.6618 30.2941L81.8486 29.4591L79.6358 43.7877Z" fill="#231F20"/>
<path d="M80.5137 35.3539C81.3803 36.8411 82.6062 38.0871 84.0791 38.9778C86.4756 40.5476 90.0995 42.3762 93.1639 42.1341V35.7881C90.9276 35.9015 88.6857 35.753 86.4839 35.3455C84.5206 35.1245 82.6029 34.6035 80.7976 33.8008L80.5137 35.3539Z" fill="#231F20"/>
<path d="M92.6056 42.5776C89.324 42.5776 85.7586 40.5736 83.8548 39.3294C82.3209 38.4036 81.0456 37.1054 80.1474 35.5552C80.1048 35.476 80.0901 35.3849 80.1056 35.2964L80.3311 33.7433C80.3426 33.678 80.3689 33.6162 80.4079 33.5626C80.447 33.5091 80.4978 33.4652 80.5565 33.4343C80.615 33.4056 80.6792 33.3906 80.7444 33.3906C80.8095 33.3906 80.8738 33.4056 80.9323 33.4343C82.7014 34.216 84.5795 34.7229 86.5017 34.9373C88.6785 35.3419 90.8952 35.4904 93.1066 35.3799C93.1629 35.3741 93.2198 35.3808 93.2732 35.3996C93.3266 35.4183 93.3752 35.4487 93.4155 35.4884C93.4578 35.5262 93.4915 35.5725 93.5146 35.6244C93.5376 35.6762 93.5494 35.7323 93.5491 35.789V42.135C93.5495 42.2402 93.5101 42.3416 93.4389 42.419C93.3677 42.4964 93.2699 42.5441 93.165 42.5525C92.998 42.5692 92.806 42.5776 92.6056 42.5776ZM80.9156 35.2797C81.7468 36.6432 82.892 37.7884 84.2556 38.6197C85.7419 39.5883 89.4326 41.776 92.6891 41.7259V36.2149C90.5599 36.2883 88.4292 36.1287 86.3347 35.7389C84.5207 35.5192 82.7419 35.0703 81.0408 34.4029L80.9156 35.2797Z" fill="#231F20"/>
<path d="M86.4107 36.7907L87.4461 36.8658C88.6146 36.9523 89.7886 36.8077 90.9011 36.4403C92.0137 36.0729 93.0429 35.4898 93.93 34.7245C94.8171 33.9591 95.5447 33.0264 96.0712 31.9797C96.5977 30.933 96.9128 29.7929 96.9985 28.6244L98.0088 14.5463L87.5881 16.3332L79.188 13.1602L78.1526 27.2466C78.0672 28.4157 78.2133 29.5901 78.5823 30.7027C78.9512 31.8153 79.536 32.8443 80.303 33.7307C81.07 34.6171 82.0042 35.3437 83.0522 35.8687C84.1002 36.3938 85.2415 36.7071 86.4107 36.7907Z" fill="white"/>
<path d="M88.1112 37.3273C87.8774 37.3273 87.6436 37.3273 87.4098 37.3273L86.3744 37.2522C83.9 37.0685 81.5998 35.9099 79.9793 34.031C78.3588 32.1521 77.5505 29.7067 77.7322 27.2322L78.801 13.1374C78.8058 13.0701 78.8263 13.0049 78.8607 12.9469C78.8951 12.889 78.9425 12.8398 78.9992 12.8033C79.056 12.7669 79.1204 12.7441 79.1874 12.7369C79.2545 12.7296 79.3223 12.7381 79.3855 12.7616L87.677 15.8929L97.9893 14.1227C98.0531 14.1127 98.1183 14.117 98.1802 14.1354C98.2421 14.1537 98.2991 14.1857 98.3471 14.2289C98.3951 14.2721 98.4328 14.3254 98.4576 14.3851C98.4824 14.4447 98.4935 14.5091 98.4903 14.5736L97.4215 28.6266C97.2507 30.9799 96.1959 33.1815 94.4689 34.7892C92.742 36.3969 90.4707 37.2917 88.1112 37.2939V37.3273ZM86.4412 36.3671L87.4766 36.4422C89.7177 36.6102 91.9337 35.8812 93.6373 34.4156C95.341 32.9499 96.3928 30.8676 96.5614 28.6266L97.5551 15.0913L87.6687 16.7613C87.5944 16.7773 87.5175 16.7773 87.4432 16.7613L79.5859 13.797L78.5922 27.3073C78.4313 29.5522 79.1672 31.7693 80.6386 33.4724C82.11 35.1754 84.1967 36.2255 86.4412 36.3921V36.3671Z" fill="#231F20"/>
<path d="M88.1958 29.7927C87.4501 29.7924 86.7063 29.7197 85.9747 29.5756C85.9193 29.5656 85.8666 29.5446 85.8195 29.5138C85.7725 29.483 85.7322 29.443 85.701 29.3962C85.6698 29.3494 85.6484 29.2968 85.638 29.2415C85.6276 29.1863 85.6286 29.1295 85.6407 29.0746C85.6507 29.019 85.6717 28.966 85.7024 28.9186C85.7331 28.8712 85.7729 28.8304 85.8195 28.7985C85.8661 28.7667 85.9186 28.7444 85.9739 28.733C86.0293 28.7216 86.0863 28.7214 86.1417 28.7322C86.9675 28.8847 87.8075 28.9463 88.6467 28.9159C88.9139 28.5485 88.4379 25.7012 87.5445 22.7369C87.528 22.6821 87.5225 22.6246 87.5283 22.5676C87.5341 22.5107 87.5511 22.4554 87.5782 22.405C87.6053 22.3546 87.6421 22.3101 87.6865 22.2739C87.7309 22.2377 87.7819 22.2106 87.8367 22.1942C87.8916 22.1777 87.9491 22.1722 88.006 22.178C88.063 22.1838 88.1182 22.2007 88.1686 22.2279C88.219 22.255 88.2636 22.2918 88.2998 22.3362C88.336 22.3805 88.363 22.4316 88.3795 22.4864C88.7886 23.8391 90.0495 28.3314 89.298 29.442C89.2324 29.5404 89.1445 29.6219 89.0415 29.6799C88.9385 29.7379 88.8233 29.7709 88.7051 29.776L88.1958 29.7927Z" fill="#231F20"/>
<path d="M92.4311 21.1692C92.4922 20.3367 92.2659 19.6416 91.9255 19.6166C91.5852 19.5916 91.2597 20.2462 91.1986 21.0786C91.1374 21.9111 91.3638 22.6062 91.7041 22.6312C92.0445 22.6562 92.3699 22.0016 92.4311 21.1692Z" fill="#231F20"/>
<path d="M84.5443 20.2121C84.6055 19.3797 84.3791 18.6846 84.0388 18.6596C83.6985 18.6346 83.373 19.2892 83.3119 20.1216C83.2507 20.9541 83.4771 21.6492 83.8174 21.6742C84.1578 21.6992 84.4832 21.0446 84.5443 20.2121Z" fill="#231F20"/>
<path d="M90.3836 34.3774C90.3085 34.3776 90.2348 34.3575 90.1701 34.3193C90.1055 34.2811 90.0523 34.2262 90.0162 34.1603C87.9621 30.6199 82.1422 31.6553 82.0837 31.6553C81.9764 31.6686 81.8679 31.6405 81.7805 31.5768C81.6931 31.5131 81.6332 31.4184 81.613 31.3121C81.5928 31.2058 81.6138 31.0958 81.6718 31.0045C81.7297 30.9131 81.8203 30.8473 81.9251 30.8203C82.1923 30.7702 88.4047 29.693 90.7594 33.7511C90.8169 33.8508 90.8325 33.9692 90.8028 34.0804C90.773 34.1915 90.7004 34.2863 90.6007 34.344C90.5329 34.3751 90.4577 34.3867 90.3836 34.3774Z" fill="#231F20"/>
<path d="M125.42 65.363C125.42 65.363 127.524 55.8858 119.625 53.7732C111.726 51.6607 87.8954 52.813 87.8954 52.813C87.8954 52.813 75.5624 47.3604 73.7922 49.1557C72.022 50.9509 70.1099 55.0007 70.4522 57.0965C70.7946 59.1924 73.9592 60.9626 73.9592 59.9105C73.9592 58.8584 73.7839 57.0965 73.7839 57.0965C73.7839 57.0965 78.5267 60.7872 82.9104 59.3844C82.9104 59.3844 113.981 71.5003 119.776 70.4398C125.571 69.3794 125.42 65.363 125.42 65.363Z" fill="white"/>
<path d="M118.982 70.9339C111.659 70.9339 85.3646 60.7887 82.9181 59.8451C79.4361 60.8722 75.8623 59.0101 74.3176 57.9747C74.3677 58.5676 74.4178 59.3358 74.4178 59.9119C74.4222 60.0065 74.4077 60.101 74.3751 60.1899C74.3425 60.2788 74.2924 60.3603 74.2279 60.4296C74.1633 60.4988 74.0855 60.5544 73.9991 60.5932C73.9127 60.6319 73.8194 60.6529 73.7247 60.6551C72.6058 60.7386 70.3847 58.9851 70.0507 57.1648C69.675 54.9103 71.6289 50.777 73.4993 48.8148C75.3697 46.8525 85.6318 51.3198 87.9364 52.3301C89.8653 52.2383 112.043 51.2613 119.733 53.3071C127.641 55.4196 125.996 64.6046 125.845 65.3561C125.845 65.9072 125.562 69.79 119.875 70.8254C119.582 70.8901 119.282 70.9264 118.982 70.9339ZM82.9765 58.9517C83.029 58.9429 83.0826 58.9429 83.1352 58.9517C83.4441 59.0686 114.164 71.0091 119.767 69.9904C125.094 69.0218 125.035 65.4897 125.027 65.3394C125.019 65.1891 125.027 65.2643 125.027 65.2309C125.333 63.6271 125.353 61.9818 125.086 60.3712C124.501 57.0312 122.639 54.9771 119.55 54.1504C111.801 52.088 88.1452 53.1902 87.9114 53.1985C87.8455 53.2144 87.7768 53.2144 87.711 53.1985C82.701 50.9858 75.186 48.3639 74.1506 49.4577C72.4806 51.1862 70.6102 55.1023 70.9358 57.0228C71.1964 57.9901 71.814 58.8226 72.6643 59.3525C72.9375 59.5584 73.2501 59.7062 73.5828 59.7867C73.5828 58.7513 73.4158 57.1564 73.4158 57.1397C73.4069 57.0565 73.4228 56.9725 73.4614 56.8982C73.5 56.824 73.5596 56.7628 73.6329 56.7222C73.7039 56.6769 73.7865 56.6528 73.8708 56.6528C73.9552 56.6528 74.0377 56.6769 74.1088 56.7222C74.1088 56.7222 78.7264 60.2543 82.8429 58.9433C82.8875 58.937 82.933 58.9399 82.9765 58.9517Z" fill="#231F20"/>
<path d="M85.4824 54.3851V56.9652L91.7616 58.3513C91.7616 58.3513 96.137 53.859 97.2476 53.1409L96.7967 50.7695L85.4824 54.3851Z" fill="#231F20"/>
<path d="M91.7945 58.7686H91.7026L85.4234 57.3825C85.3299 57.363 85.2462 57.3115 85.1867 57.2367C85.1272 57.162 85.0957 57.0688 85.0977 56.9733V54.3932C85.0979 54.3052 85.1253 54.2195 85.1761 54.1477C85.2269 54.076 85.2987 54.0217 85.3817 53.9924L96.7043 50.3852C96.7579 50.3605 96.8163 50.3477 96.8754 50.3477C96.9345 50.3477 96.9929 50.3605 97.0466 50.3852C97.1455 50.4508 97.2145 50.5529 97.2387 50.6691L97.6895 53.0405C97.7034 53.1216 97.6934 53.205 97.6608 53.2806C97.6282 53.3562 97.5743 53.4207 97.5058 53.4663C95.6137 55.0882 93.8076 56.8078 92.0951 58.6183C92.0578 58.6624 92.0119 58.6985 91.9602 58.7243C91.9085 58.7502 91.8521 58.7652 91.7945 58.7686ZM85.9495 56.631L91.6859 57.9002C92.4457 57.1236 95.6021 53.9172 96.8462 52.957L96.5373 51.287L85.9495 54.627V56.631Z" fill="#231F20"/>
<path d="M85.4824 54.383C85.4824 54.383 87.8622 50.5336 90.5759 49.4648L96.7967 50.7674C96.7967 50.7674 92.7636 53.4227 91.4276 55.7273L85.4824 54.383Z" fill="white"/>
<path d="M91.4612 56.1785H91.3694L85.4158 54.8341C85.3491 54.8201 85.2868 54.79 85.2344 54.7463C85.182 54.7026 85.141 54.6468 85.1152 54.5836C85.0844 54.5228 85.0684 54.4556 85.0684 54.3874C85.0684 54.3192 85.0844 54.252 85.1152 54.1912C85.2154 54.0242 87.6202 50.2082 90.4258 49.0977C90.5052 49.0768 90.5886 49.0768 90.668 49.0977L96.9221 50.3335C97.0057 50.3506 97.0822 50.3923 97.1417 50.4533C97.2013 50.5144 97.2411 50.5919 97.2561 50.6758C97.272 50.7592 97.2621 50.8453 97.2278 50.9229C97.1935 51.0005 97.1364 51.0657 97.0641 51.11C97.0641 51.11 93.0978 53.7319 91.837 55.9196C91.8062 55.9946 91.7543 56.059 91.6876 56.1049C91.6209 56.1509 91.5422 56.1765 91.4612 56.1785ZM86.2174 54.1244L91.2274 55.26C92.4922 53.613 94.0115 52.1783 95.7281 51.0098L90.6179 49.941C88.7141 50.7426 86.9439 53.0639 86.2174 54.0993V54.1244Z" fill="#231F20"/>
<path d="M87.1524 56.6562C86.6066 57.3595 86.2084 58.1658 85.9817 59.0267C85.755 59.8876 85.7044 60.7854 85.8331 61.6662L89.7492 62.6516C89.6083 60.8526 90.0004 59.052 90.8765 57.4746L87.1524 56.6562Z" fill="#231F20"/>
<path d="M89.7243 63.0601H89.6575L85.708 62.0247C85.6234 62.0041 85.5474 61.9577 85.4905 61.8918C85.4336 61.8259 85.3987 61.7439 85.3907 61.6573C85.2542 60.7196 85.3113 59.7639 85.5583 58.8491C85.8053 57.9344 86.237 57.0799 86.8269 56.3383C86.8735 56.2846 86.9339 56.2445 87.0016 56.2225C87.0692 56.2004 87.1416 56.1971 87.211 56.2131L90.9434 57.0481C91.0093 57.0619 91.0705 57.0922 91.1216 57.1359C91.1727 57.1797 91.2119 57.2356 91.2357 57.2986C91.2664 57.3579 91.2825 57.4238 91.2825 57.4906C91.2825 57.5574 91.2664 57.6233 91.2357 57.6827C90.4063 59.1791 90.0374 60.8871 90.1752 62.5925C90.1796 62.6591 90.1692 62.7259 90.1447 62.7879C90.1201 62.85 90.0821 62.9059 90.0333 62.9515C89.9484 63.0266 89.8376 63.0656 89.7243 63.0601ZM86.2006 61.3233L89.2818 62.1082C89.2425 60.6025 89.5601 59.1089 90.2086 57.7495L87.2861 57.1149C86.4562 58.3534 86.0734 59.8378 86.2006 61.3233Z" fill="#231F20"/>
<path d="M90.9356 53.0139C90.8346 53.0149 90.7367 52.9793 90.66 52.9137C90.5983 52.8583 90.5537 52.7864 90.5315 52.7065C90.5093 52.6266 90.5104 52.542 90.5348 52.4628L91.0692 50.7928C91.1065 50.6914 91.1817 50.6084 91.2789 50.5613C91.3761 50.5142 91.4878 50.5066 91.5905 50.5401C91.6932 50.5736 91.7789 50.6457 91.8296 50.741C91.8803 50.8364 91.8921 50.9477 91.8624 51.0516L91.637 51.753L93.307 50.918C93.3557 50.8939 93.4087 50.8798 93.4629 50.8765C93.5172 50.8731 93.5715 50.8806 93.6228 50.8985C93.6741 50.9164 93.7213 50.9443 93.7617 50.9806C93.8021 51.0169 93.8349 51.0609 93.8581 51.1101C93.8823 51.1594 93.8966 51.213 93.9 51.2678C93.9035 51.3227 93.8961 51.3777 93.8782 51.4297C93.8604 51.4816 93.8324 51.5296 93.796 51.5707C93.7596 51.6119 93.7155 51.6455 93.666 51.6695L91.161 52.9137C91.0967 52.9674 91.0186 53.0021 90.9356 53.0139Z" fill="#D1D3D4"/>
<path d="M68.7064 77.8886C68.6009 77.8873 68.4994 77.8476 68.421 77.7769C68.3427 77.7062 68.2927 77.6093 68.2805 77.5045C68.005 74.9995 65.5835 53.4482 65.5835 52.6382C65.5786 52.5807 65.5861 52.5227 65.6057 52.4684C65.6252 52.414 65.6562 52.3645 65.6967 52.3233C65.7371 52.282 65.786 52.25 65.84 52.2295C65.8939 52.2089 65.9517 52.2002 66.0093 52.204C66.1238 52.2061 66.233 52.2526 66.314 52.3335C66.395 52.4145 66.4414 52.5237 66.4435 52.6382C66.4435 53.3146 68.3891 70.7493 69.1322 77.4126C69.1441 77.5253 69.1114 77.6382 69.0412 77.7271C68.971 77.816 68.8688 77.874 68.7565 77.8886H68.7064Z" fill="#231F20"/>
<path d="M147.49 0.410156C132.51 0.410156 120.369 9.50331 120.369 20.7341C120.369 25.694 122.741 30.2364 126.682 33.7601L120.553 38.5864L130.256 36.4404C135.459 39.5301 141.413 41.1276 147.465 41.058C162.445 41.058 174.586 31.9565 174.586 20.7341C174.586 9.51166 162.47 0.410156 147.49 0.410156Z" fill="white"/>
<path d="M147.489 41.475C141.419 41.5329 135.446 39.9459 130.205 36.8825L120.669 38.995C120.577 39.0158 120.48 39.0047 120.395 38.9633C120.31 38.922 120.241 38.853 120.201 38.7676C120.16 38.6822 120.149 38.5855 120.171 38.4933C120.192 38.4011 120.244 38.3189 120.319 38.2602L126.038 33.7429C122.105 30.0689 119.951 25.4597 119.951 20.7336C119.951 9.29409 132.301 -0.0078125 147.506 -0.0078125C162.712 -0.0078125 175.061 9.29409 175.061 20.7336C175.061 32.1731 162.67 41.475 147.489 41.475ZM130.28 36.0224C130.357 36.0208 130.432 36.0411 130.497 36.0809C135.64 39.1217 141.516 40.6982 147.489 40.64C162.211 40.64 174.209 31.7055 174.209 20.7336C174.209 9.76169 162.227 0.827187 147.489 0.827187C132.752 0.827187 120.769 9.75334 120.769 20.7336C120.769 25.3678 122.966 29.9186 126.94 33.4506C126.985 33.4918 127.021 33.5422 127.046 33.5983C127.07 33.6544 127.083 33.7151 127.082 33.7763C127.082 33.8379 127.068 33.8988 127.041 33.9539C127.013 34.009 126.973 34.0569 126.923 34.0936L122.264 37.8093L130.188 36.0558L130.28 36.0224Z" fill="#D1D3D4"/>
<path d="M145.787 25.6005C145.717 25.6016 145.648 25.5843 145.586 25.5504C145.521 25.5137 145.466 25.4604 145.428 25.3959C145.39 25.3314 145.37 25.2579 145.369 25.183V8.80031C145.369 8.68958 145.413 8.58339 145.491 8.5051C145.57 8.4268 145.676 8.38281 145.787 8.38281C145.897 8.38495 146.002 8.42962 146.079 8.50746C146.157 8.5853 146.202 8.69025 146.204 8.80031V24.4482L159.464 15.8227C159.557 15.7618 159.67 15.7403 159.779 15.763C159.888 15.7857 159.983 15.8507 160.044 15.9437C160.105 16.0367 160.127 16.1501 160.104 16.259C160.081 16.3678 160.016 16.4632 159.923 16.5241L146.012 25.5337C145.944 25.5759 145.866 25.599 145.787 25.6005Z" fill="#D1D3D4"/>
</svg>
