<svg width="256" height="162" viewBox="0 0 256 162" fill="none" xmlns="http://www.w3.org/2000/svg">
<g clip-path="url(#clip0_2948_9584)">
<path opacity="0.18" d="M1.48279 82.6311C0.744377 105.862 18.812 128.26 41.6735 132.445C56.5062 135.164 72.7865 131.144 86.2127 137.971C94.4817 142.173 100.407 149.932 108.324 154.767C118.316 160.862 130.594 161.799 142.314 161.272C154.733 160.721 167.901 158.342 176.967 149.85C187.744 139.747 190.212 123.449 199.5 111.963C207.265 102.357 219.719 96.1394 223.927 84.5534C227.794 73.8815 223.089 61.5746 215.089 53.5224C207.09 45.4702 196.336 40.8464 185.728 36.7734C175.121 32.7004 164.309 28.9028 155.178 22.0051C148.603 17.0413 143.211 10.0089 135.698 6.36953C118.416 -1.99914 90.5377 -2.55588 73.9586 7.30134C52.4333 20.1063 45.1546 49.9769 22.8616 61.4047C15.6826 65.085 6.61651 67.2182 3.12371 74.4969C1.91646 77.0051 1.5707 79.8474 1.48279 82.6311Z" fill="#68E1FD"/>
<path d="M254.219 99.2754C254.22 101.644 253.754 103.989 252.848 106.177C251.942 108.365 250.614 110.353 248.939 112.028C247.264 113.703 245.276 115.031 243.088 115.937C240.9 116.843 238.555 117.309 236.186 117.308H19.3509C14.5683 117.308 9.98171 115.408 6.59996 112.026C3.21821 108.645 1.31836 104.058 1.31836 99.2754" fill="white"/>
<path d="M1.30078 99.2747C1.30078 94.4922 3.20063 89.9055 6.58238 86.5238C9.96413 83.142 14.5508 81.2422 19.3333 81.2422H236.169C240.951 81.2422 245.538 83.142 248.92 86.5238C252.301 89.9055 254.201 94.4922 254.201 99.2747" fill="white"/>
<path d="M255.526 99.2754C255.526 104.405 253.488 109.324 249.861 112.95C246.235 116.577 241.316 118.615 236.186 118.615H19.3511C14.222 118.615 9.30293 116.577 5.67609 112.95C2.04925 109.324 0.0117188 104.405 0.0117188 99.2754" fill="#68E1FD"/>
<path d="M0 99.2749C0 94.1458 2.03753 89.2267 5.66437 85.5999C9.29121 81.9731 14.2103 79.9355 19.3394 79.9355H236.175C241.304 79.9355 246.223 81.9731 249.85 85.5999C253.477 89.2267 255.514 94.1458 255.514 99.2749" fill="#68E1FD"/>
<path d="M252.918 99.2754C252.913 94.8399 251.149 90.5875 248.012 87.4517C244.875 84.3159 240.622 82.5529 236.187 82.5498H19.3512C17.1281 82.5082 14.9189 82.9101 12.8529 83.7321C10.7868 84.5541 8.90535 85.7797 7.31841 87.3372C5.73147 88.8947 4.4709 90.7529 3.61038 92.8032C2.74985 94.8535 2.30664 97.0548 2.30664 99.2784C2.30664 101.502 2.74985 103.703 3.61038 105.753C4.4709 107.804 5.73147 109.662 7.31841 111.22C8.90535 112.777 10.7868 114.003 12.8529 114.825C14.9189 115.647 17.1281 116.049 19.3512 116.007H236.187C240.623 116.002 244.876 114.238 248.012 111.101C251.149 107.964 252.913 103.711 252.918 99.2754Z" fill="white"/>
<path d="M207.604 82.848C207.387 83.1163 207.113 83.3326 206.801 83.4809C204.457 84.8406 202.031 86.2119 199.4 86.9269C197.417 87.416 195.387 87.6872 193.346 87.7356C188.886 87.9389 184.418 87.8665 179.967 87.5188C171.533 86.8565 163.2 85.2098 154.767 84.5886C146.422 84.0025 138.029 84.4069 129.672 83.8853C128.6 83.815 127.328 83.6333 126.824 82.7132C126.67 82.3842 126.595 82.024 126.604 81.6609C126.613 81.2978 126.707 80.9419 126.877 80.6211C128.002 78.2769 131.108 77.9077 133.699 77.8374C151.831 77.3451 169.98 76.8587 188.107 77.4681C191.289 77.5795 194.5 77.726 197.583 78.5054C199.873 79.0726 202.193 79.5051 204.533 79.8006C205.752 79.9237 208.823 81.0782 207.604 82.848Z" fill="url(#paint0_linear_2948_9584)"/>
<path d="M185.173 85.3438H18.9478C11.3126 85.3438 5.12305 91.532 5.12305 99.1655C5.12305 106.799 11.3126 112.987 18.9478 112.987H185.173C192.808 112.987 198.997 106.799 198.997 99.1655C198.997 91.532 192.808 85.3438 185.173 85.3438Z" fill="#68E1FD"/>
<path d="M107.639 88.1698C106.546 88.17 105.469 88.4249 104.492 88.914C103.903 89.3317 103.413 89.8746 103.058 90.5038C102.704 91.133 102.493 91.833 102.441 92.5534C102.347 93.9926 102.37 95.4371 102.511 96.8725C102.669 101.074 101.567 105.206 100.483 109.267C99.5925 112.584 98.5259 116.159 95.7422 118.169C95.5103 118.385 95.2263 118.537 94.9181 118.61C94.6099 118.683 94.2881 118.674 93.9841 118.585C93.398 118.322 93.2222 117.618 93.1109 117.003C91.3059 106.794 94.9921 96.4271 94.9921 86.06C94.9921 84.0206 94.9921 81.6413 96.6095 80.393C97.6117 79.6253 98.9537 79.5315 100.214 79.4671L119.453 78.5235C122.466 78.377 126.369 77.9375 129.217 79.1858C132.786 80.7622 127.681 83.0478 125.806 83.9854C120.215 86.8043 113.827 87.6834 107.639 88.1698Z" fill="url(#paint1_linear_2948_9584)"/>
<path d="M129.469 74.3336C129.112 76.7774 128.414 79.3325 126.574 80.9793C125.185 82.2276 123.316 82.7843 121.493 83.2121C115.041 84.721 108.373 85.0781 101.796 84.267C100.865 84.1557 99.7159 84.1029 99.1826 84.853C98.9659 85.2557 98.8607 85.7089 98.8778 86.1658C98.376 96.111 97.3667 106.024 95.8539 115.866C95.596 117.496 95.3088 119.183 94.3653 120.555C92.197 123.655 87.7137 123.708 83.9396 123.45C83.4804 123.475 83.0287 123.326 82.6738 123.034C81.994 122.295 82.8437 121.193 83.5528 120.49C86.5417 117.56 87.8485 113.253 88.124 109.068C88.3994 104.884 87.7606 100.7 87.409 96.5153C86.7076 88.156 87.1731 79.7398 88.7921 71.5089C89.1378 69.7507 89.5715 67.934 90.7729 66.6154C91.2886 66.0294 103.437 65.291 104.117 64.9569C103.49 64.3709 95.1858 59.5712 94.5763 58.9441C91.7223 63.9607 83.9514 75.5994 81.9119 81.0027C75.6618 81.4725 69.3808 81.3292 63.1586 80.5749C62.4612 78.8168 70.7771 75.5701 72.6232 75.7167C76.0984 65.8712 80.8278 54.4258 87.0339 46.0102C89.1788 43.08 91.7223 40.1029 95.2795 39.3059C99.9386 38.2569 104.428 41.3277 108.213 44.2345C118.897 52.3922 131.755 58.8855 129.469 74.3336Z" fill="#3E3E54"/>
<path d="M157.394 47.2995C160.113 46.0864 163.032 44.7385 165.956 45.3187C168.172 45.7641 170.018 47.2585 171.729 48.7353C173.776 50.4895 175.788 52.2828 177.765 54.1152C179.523 55.7502 181.393 57.6724 181.469 60.0811C181.533 62.1146 184.059 80.3347 182.055 80.4694C177.654 80.7625 149.049 80.6746 126.598 80.9676C124.3 80.9969 124.875 81.5536 123.111 80.0944C118.17 75.9921 118.264 60.4796 124.365 57.1919C128.795 54.8067 135.242 54.8125 140.094 53.4881C146.043 51.8706 151.557 49.2569 157.394 47.2995Z" fill="white"/>
<path d="M148.943 50.4006C145.081 54.3681 140.861 59.537 139.625 64.9286C139.191 66.8215 141.969 71.9318 168.751 66.8391C169.531 66.6867 173.721 61.4182 173.369 60.0117C173.018 58.6052 163.623 59.3436 162.193 59.1209C161.531 59.0154 160.857 59.1502 160.201 59.0506C159.544 58.951 155.231 60.6563 155.225 59.9882C155.225 59.1561 159.82 56.5716 160.611 56.3079C164.52 55.0186 176.012 54.0692 166.472 47.5173C161.127 43.878 152.764 46.5034 148.943 50.4006Z" fill="url(#paint2_linear_2948_9584)"/>
<path d="M168.892 72.9963C168.709 73.9623 168.796 74.96 169.144 75.8797C169.658 76.8022 170.441 77.5463 171.389 78.0129C177.554 81.6405 185.166 81.406 192.31 81.0603C193.828 80.9841 202.654 81.113 204.031 80.4742C206.586 79.3022 209.024 75.5574 206.305 69.6911C204.922 66.6378 197.426 56.0129 196.553 52.7486C194.315 51.9985 191.654 52.4263 191.126 54.7294C190.599 57.0326 198.001 69.1754 196.553 70.9452C193.488 74.69 186.942 65.0848 180.636 57.8823C177.038 53.7859 169.437 68.5248 168.892 72.9963Z" fill="white"/>
<path d="M174.729 55.8565C174.027 56.4482 173.433 57.1558 172.971 57.9486C172.744 58.3456 172.619 58.7926 172.606 59.2496C172.594 59.7067 172.695 60.1597 172.9 60.5683C173.551 61.6642 173.328 64.1959 180.958 61.8458C181.632 61.6407 183.959 56.4425 183.959 55.7334C184.016 54.4646 183.616 53.2174 182.834 52.2172C179.968 48.9177 176.663 53.9987 174.729 55.8565Z" fill="url(#paint3_linear_2948_9584)"/>
<path d="M172.736 61.0947L175.081 59.6589C175.13 59.6248 175.186 59.6009 175.245 59.5886C175.359 59.5799 175.473 59.6109 175.567 59.6765C176.526 60.1507 177.6 60.3409 178.663 60.2246C179.727 60.1083 180.734 59.6904 181.568 59.0201C180.63 58.9146 179.863 58.27 179.107 57.7074C178.226 57.049 177.296 56.4611 176.323 55.9493C176.101 55.8121 175.85 55.7298 175.59 55.709C175.384 55.7317 175.185 55.7952 175.004 55.8958C174.823 55.9964 174.664 56.1321 174.536 56.295C173.634 57.1889 172.938 58.2689 172.496 59.4596" fill="url(#paint4_linear_2948_9584)"/>
<path d="M148.795 47.0295C144.933 50.9912 140.714 56.1601 139.477 61.5516C139.044 63.4446 137.274 70.3423 164.062 65.2613C164.841 65.1148 164.683 63.8079 164.8 63.0226C165.109 61.6039 165.135 60.1381 164.876 58.7093C164.525 57.3028 163.476 55.9667 162.046 55.744C161.384 55.6385 160.71 55.7733 160.053 55.6736C159.397 55.574 155.107 57.2618 155.107 56.6113C155.107 55.7791 159.702 53.1947 160.493 52.9368C164.402 51.6417 175.894 50.6923 166.353 44.1462C160.968 40.501 152.593 43.1265 148.795 47.0295Z" fill="white"/>
<path d="M148.795 47.0295C144.933 50.9912 140.714 56.1601 139.477 61.5516C139.044 63.4446 137.274 70.3423 164.062 65.2613C164.841 65.1148 164.683 63.8079 164.8 63.0226C165.109 61.6039 165.135 60.1381 164.876 58.7093C164.525 57.3028 163.476 55.9667 162.046 55.744C161.384 55.6385 160.71 55.7733 160.053 55.6736C159.397 55.574 155.107 57.2618 155.107 56.6113C155.107 55.7791 159.702 53.1947 160.493 52.9368C164.402 51.6417 175.894 50.6923 166.353 44.1462C160.968 40.501 152.593 43.1265 148.795 47.0295Z" fill="white"/>
<path d="M193.705 43.1152C194.636 43.168 195.217 44.2111 195.258 45.1429C195.299 46.0747 194.988 47.0007 195 47.9384C195.051 48.7218 195.209 49.4947 195.469 50.2356C195.879 51.648 196.23 53.5233 194.853 54.543C194.443 54.8078 193.971 54.962 193.483 54.9908C192.995 55.0195 192.508 54.9218 192.069 54.7071C189.198 53.5351 189.508 50.9213 190.897 48.7061C191.226 48.2255 193.705 43.1152 193.705 43.1152Z" fill="url(#paint5_linear_2948_9584)"/>
<path d="M173.86 50.6805C173.725 52.9368 173.983 55.2985 175.267 57.209C176.55 59.1195 179.082 60.4205 181.408 59.8462C182.926 59.4653 184.122 58.3987 185.194 57.3262C188.804 53.7162 191.957 49.3736 192.473 44.4333C192.705 42.9453 192.456 41.4221 191.764 40.0849C190.955 38.7018 189.507 37.7407 188.019 37.014C186.442 36.1719 184.704 35.6764 182.92 35.5606C181.334 35.5087 179.773 35.9667 178.466 36.8675C177.294 37.6879 177.007 38.9128 176.509 40.2021C175.185 43.5952 174.059 47.0822 173.86 50.6805Z" fill="url(#paint6_linear_2948_9584)"/>
<path d="M168.474 52.1706L172.752 45.8883C172.866 45.7206 173.013 45.5783 173.185 45.4705C173.357 45.3627 173.549 45.2917 173.749 45.262C173.95 45.2322 174.154 45.2444 174.35 45.2977C174.545 45.3511 174.728 45.4444 174.885 45.5718L178.988 48.9005C179.272 49.131 179.46 49.4589 179.517 49.8205C179.573 50.1822 179.493 50.5519 179.292 50.8579L171.088 63.241C170.971 63.4158 170.818 63.5637 170.639 63.6746C170.46 63.7856 170.26 63.8571 170.051 63.8842C169.842 63.9114 169.63 63.8937 169.429 63.8323C169.228 63.7709 169.042 63.6672 168.884 63.5281L166.54 61.4418C166.332 61.258 166.181 61.0187 166.104 60.7519C166.027 60.4851 166.028 60.202 166.106 59.9357L168.275 52.575C168.321 52.431 168.388 52.2947 168.474 52.1706Z" fill="#3E3E54"/>
<path d="M167.632 52.1706L171.91 45.8883C172.024 45.7206 172.172 45.5783 172.343 45.4705C172.515 45.3627 172.707 45.2917 172.907 45.262C173.108 45.2322 173.312 45.2444 173.508 45.2977C173.704 45.3511 173.886 45.4444 174.043 45.5718L178.146 48.9005C178.43 49.131 178.619 49.4589 178.675 49.8205C178.731 50.1822 178.651 50.5519 178.451 50.8579L170.246 63.241C170.129 63.4158 169.976 63.5637 169.797 63.6746C169.618 63.7856 169.418 63.8571 169.209 63.8842C169.001 63.9114 168.789 63.8937 168.587 63.8323C168.386 63.7709 168.2 63.6672 168.042 63.5281L165.698 61.4418C165.49 61.258 165.339 61.0187 165.262 60.7519C165.185 60.4851 165.186 60.202 165.265 59.9357L167.415 52.575C167.467 52.43 167.54 52.2936 167.632 52.1706Z" fill="#3E3E54"/>
<path d="M163.043 55.8735C163.906 54.4495 164.856 53.0796 165.886 51.7712C166.202 51.3648 166.601 51.031 167.058 50.7925C167.285 50.6746 167.539 50.6165 167.796 50.6236C168.052 50.6308 168.302 50.703 168.523 50.8335C168.577 50.867 168.62 50.916 168.646 50.9742C168.657 51.0446 168.645 51.1167 168.611 51.1793C168.44 51.6059 168.2 52.0018 167.902 52.3514C167.696 52.5569 167.511 52.7827 167.351 53.0253C167.273 53.1483 167.227 53.2888 167.216 53.434C167.206 53.5793 167.232 53.7248 167.292 53.8575C167.382 53.9935 167.498 54.1109 167.632 54.2033L169.167 55.4164C169.589 55.7731 170.047 56.0854 170.533 56.3482C171.119 56.6529 171.822 56.8346 172.215 57.3738C172.848 58.2411 172.291 59.1319 172.115 60.0285C172.075 60.4417 171.931 60.8377 171.695 61.1793C171.459 61.5208 171.14 61.7964 170.767 61.9801C169.319 62.8416 167.733 63.4482 166.079 63.7733C164.866 64.0136 163.524 64.0781 162.487 63.41C162.093 63.1664 161.754 62.8446 161.49 62.4646C161.226 62.0846 161.042 61.6544 160.951 61.2006C160.954 60.8159 160.999 60.4327 161.086 60.0578C161.027 59.5701 161.069 59.0754 161.209 58.6045C161.474 58.0759 161.802 57.5819 162.188 57.1335C162.481 56.7057 162.762 56.2955 163.043 55.8735Z" fill="url(#paint7_linear_2948_9584)"/>
<path d="M175.321 36.2864C174.361 37.4804 173.914 39.0063 174.078 40.5293C174.085 40.6686 174.127 40.8038 174.201 40.922C174.35 41.0648 174.546 41.1482 174.752 41.1564C176.816 41.4609 178.902 41.5903 180.988 41.5432C180.73 42.182 181.216 42.8911 181.814 43.231C182.412 43.5709 183.109 43.6705 183.719 43.9811C184.125 44.1889 184.483 44.4809 184.768 44.8376C185.053 45.1943 185.258 45.6075 185.371 46.0498C185.494 46.548 185.5 47.0637 185.623 47.556C185.667 47.8062 185.768 48.0426 185.92 48.2463C186.072 48.4499 186.269 48.6149 186.496 48.728C186.772 48.8277 187.112 48.8453 187.258 49.0973C187.325 49.2481 187.345 49.4153 187.317 49.5778C187.193 50.7621 186.919 51.9259 186.502 53.0413C187.739 52.3439 187.434 50.1111 188.759 49.5661C189.087 49.8374 189.324 50.2042 189.435 50.6158C189.546 51.0273 189.527 51.4633 189.38 51.8634C189.064 52.6581 188.53 53.347 187.838 53.85C189.72 52.2384 190.857 49.947 191.941 47.7201C192.486 46.6066 193.025 45.2704 192.427 44.2038C192.238 43.9451 192.082 43.6635 191.964 43.3658C191.916 43.0933 191.925 42.8136 191.993 42.5453C192.202 41.4605 192.149 40.3417 191.841 39.281C191.564 38.5114 191.14 37.8029 190.593 37.1947C189.661 36.1463 188.522 35.3012 187.249 34.7124C185.975 34.1235 184.594 33.8035 183.191 33.7723C181.802 33.7312 180.525 34.1649 179.177 34.2938C178.432 34.3472 177.707 34.5513 177.044 34.8938C176.381 35.2364 175.795 35.7102 175.321 36.2864Z" fill="#3E3E54"/>
<path d="M121.527 78.4295C121.527 78.4295 172.982 74.5147 176.504 74.9132C180.026 75.3118 188.776 81.0726 188.776 81.0726L124.047 81.559C123.144 80.5685 122.302 79.5234 121.527 78.4295Z" fill="url(#paint8_linear_2948_9584)"/>
<path d="M106.742 103.595C106.796 103.144 106.819 102.69 106.813 102.236V97.2483C106.817 96.798 106.794 96.3478 106.742 95.9004C107.176 95.9004 107.504 95.9004 108.096 95.9004H110.112C111.94 95.9004 112.943 96.7736 112.943 98.3794C112.943 99.9851 111.893 100.999 110.106 100.999H108.647V102.171C108.644 102.635 108.67 103.099 108.723 103.56L106.742 103.595ZM110.024 99.4577C110.16 99.4741 110.298 99.4598 110.427 99.4159C110.557 99.372 110.675 99.2996 110.773 99.204C110.871 99.1084 110.946 98.992 110.993 98.8635C111.04 98.735 111.057 98.5976 111.044 98.4614C111.057 98.3265 111.039 98.1904 110.992 98.0635C110.944 97.9365 110.868 97.8221 110.77 97.7288C110.672 97.6356 110.553 97.566 110.424 97.5254C110.295 97.4848 110.158 97.4742 110.024 97.4944H108.647V99.4577H110.024Z" fill="white"/>
<path d="M118.429 103.593C118.315 103.104 118.164 102.624 117.977 102.157C117.678 101.354 117.567 101.144 117.339 100.938C117.14 100.765 116.881 100.676 116.618 100.692H115.68V102.204C115.67 102.668 115.696 103.133 115.756 103.593H113.775C113.832 103.134 113.856 102.672 113.846 102.21V97.2522C113.852 96.7999 113.828 96.3477 113.775 95.8984C114.18 95.8984 114.52 95.8984 115.147 95.8984H117.544C119.038 95.8984 119.888 96.672 119.888 97.9965C119.943 98.4436 119.827 98.8951 119.565 99.261C119.302 99.6269 118.911 99.8806 118.47 99.9714C118.938 100.118 119.155 100.329 119.448 100.985C119.583 101.278 119.712 101.571 120.128 102.591C120.234 102.849 120.339 103.077 120.573 103.564L118.429 103.593ZM117.116 99.1158C117.232 99.1262 117.349 99.1113 117.459 99.0723C117.568 99.0333 117.668 98.9711 117.752 98.8898C117.835 98.8086 117.9 98.7102 117.942 98.6016C117.984 98.4929 118.002 98.3765 117.995 98.2602C117.995 97.7445 117.702 97.4749 117.128 97.4749H115.68V99.1158H117.116Z" fill="white"/>
<path d="M128.554 99.7273C128.554 102.159 127.071 103.771 124.827 103.771C122.582 103.771 121.117 102.194 121.117 99.7566C121.117 97.3186 122.571 95.7656 124.839 95.7656C127.107 95.7656 128.554 97.3128 128.554 99.7273ZM126.638 99.7273C126.638 98.2329 125.952 97.3304 124.839 97.3304C123.725 97.3304 123.022 98.2446 123.022 99.7273C123.022 101.21 123.713 102.159 124.839 102.159C125.964 102.159 126.638 101.257 126.638 99.7449V99.7273Z" fill="white"/>
<path d="M134.398 98.6029C134.365 98.2453 134.194 97.9146 133.922 97.6805C133.649 97.4465 133.297 97.3275 132.938 97.3488C131.813 97.3488 131.18 98.2337 131.18 99.7574C131.18 101.281 131.86 102.166 133.003 102.166C133.236 102.172 133.468 102.122 133.678 102.02C133.888 101.918 134.07 101.767 134.21 101.58C134.374 101.347 134.47 101.073 134.485 100.789L136.402 101.076C136.303 101.697 136.04 102.279 135.64 102.764C135.307 103.107 134.903 103.374 134.457 103.547C134.011 103.72 133.533 103.795 133.056 103.766C132.557 103.788 132.058 103.709 131.59 103.535C131.122 103.361 130.694 103.095 130.33 102.752C129.598 101.929 129.213 100.853 129.258 99.7516C129.233 99.1966 129.32 98.6422 129.512 98.121C129.704 97.5997 129.998 97.1221 130.377 96.7159C131.1 96.0653 132.049 95.7226 133.02 95.7606C133.537 95.7271 134.055 95.8194 134.529 96.0297C135.002 96.2399 135.418 96.5619 135.74 96.9679C136.035 97.3337 136.236 97.7663 136.326 98.2279L134.398 98.6029Z" fill="white"/>
<path d="M143.036 103.66C142.532 103.605 142.025 103.583 141.518 103.595H138.617C137.914 103.595 137.656 103.595 137.258 103.624C137.321 103.178 137.346 102.727 137.334 102.277V97.2483C137.341 96.7977 137.316 96.3472 137.258 95.9004C137.639 95.9004 137.897 95.9004 138.617 95.9004H141.548C142.008 95.9071 142.468 95.8856 142.925 95.8359V97.5589C142.468 97.5092 142.008 97.4877 141.548 97.4944H139.151V98.8716H141.143C141.605 98.8779 142.067 98.8563 142.526 98.8072V100.513C142.067 100.463 141.605 100.441 141.143 100.448H139.151V101.995H141.53C142.031 102.005 142.532 101.983 143.03 101.931L143.036 103.66Z" fill="white"/>
<path d="M145.66 101.097C145.672 101.342 145.756 101.578 145.901 101.777C146.036 101.925 146.204 102.042 146.39 102.117C146.577 102.192 146.778 102.224 146.979 102.21C147.688 102.21 148.116 101.9 148.116 101.384C148.121 101.251 148.086 101.119 148.018 101.005C147.949 100.89 147.849 100.798 147.729 100.739C147.282 100.568 146.818 100.44 146.346 100.358C145.818 100.295 145.311 100.113 144.863 99.8251C144.58 99.6296 144.349 99.3664 144.193 99.0595C144.036 98.7525 143.959 98.4114 143.967 98.067C143.967 96.6488 145.11 95.7228 146.926 95.7228C147.407 95.68 147.89 95.7535 148.336 95.9371C148.782 96.1207 149.177 96.409 149.487 96.7777C149.724 97.1047 149.882 97.4816 149.95 97.8794L147.993 98.0963C147.882 97.5102 147.553 97.2465 146.85 97.2465C146.264 97.2465 145.877 97.5513 145.877 97.9732C145.88 98.1037 145.924 98.23 146.001 98.3349C146.079 98.4399 146.187 98.5182 146.311 98.5593C146.721 98.7108 147.148 98.8131 147.583 98.864C148.106 98.9484 148.61 99.125 149.071 99.3856C149.394 99.578 149.657 99.8551 149.833 100.187C150.008 100.519 150.089 100.892 150.068 101.267C150.08 101.578 150.03 101.889 149.919 102.18C149.808 102.471 149.639 102.736 149.423 102.96C148.749 103.531 147.877 103.813 146.997 103.746C146.286 103.765 145.582 103.61 144.946 103.294C144.482 103.038 144.128 102.621 143.949 102.122C143.844 101.847 143.775 101.56 143.744 101.267L145.66 101.097Z" fill="white"/>
<path d="M152.705 101.099C152.712 101.345 152.796 101.583 152.946 101.779C153.08 101.928 153.248 102.045 153.434 102.121C153.621 102.196 153.823 102.227 154.024 102.212C154.733 102.212 155.155 101.902 155.155 101.386C155.16 101.253 155.126 101.121 155.057 101.006C154.988 100.892 154.888 100.8 154.768 100.741C154.321 100.569 153.858 100.441 153.385 100.36C152.857 100.297 152.35 100.115 151.903 99.8271C151.619 99.6315 151.388 99.3684 151.232 99.0615C151.075 98.7545 150.998 98.4134 151.006 98.0689C151.006 96.6507 152.149 95.7248 153.965 95.7248C154.446 95.6819 154.929 95.7554 155.375 95.939C155.821 96.1227 156.216 96.411 156.526 96.7796C156.765 97.1052 156.924 97.4828 156.989 97.8814L155.038 98.0982C154.927 97.5122 154.592 97.2485 153.895 97.2485C153.309 97.2485 152.916 97.5532 152.916 97.9752C152.919 98.1056 152.963 98.232 153.04 98.3369C153.118 98.4418 153.226 98.5202 153.35 98.5612C153.76 98.7127 154.187 98.815 154.622 98.866C155.146 98.9516 155.652 99.1281 156.116 99.3875C156.437 99.5812 156.699 99.8587 156.873 100.19C157.048 100.522 157.128 100.895 157.107 101.269C157.121 101.58 157.071 101.891 156.96 102.182C156.849 102.474 156.679 102.739 156.462 102.962C155.79 103.533 154.92 103.815 154.042 103.748C153.329 103.768 152.623 103.613 151.985 103.296C151.521 103.04 151.167 102.623 150.988 102.124C150.885 101.849 150.818 101.561 150.789 101.269L152.705 101.099Z" fill="white"/>
<path d="M167.134 97.4241C166.618 97.9705 166.193 98.5956 165.874 99.276C165.155 100.614 164.713 102.083 164.573 103.595H162.446C162.64 102.365 163.012 101.169 163.547 100.044C163.968 99.1711 164.474 98.3427 165.059 97.5706H162.434C161.97 97.5623 161.506 97.5838 161.045 97.6351V95.877C161.539 95.9279 162.036 95.9494 162.533 95.9414H165.657C166.507 95.9414 166.765 95.9414 167.14 95.9063L167.134 97.4241Z" fill="white"/>
<path d="M170.203 98.52C170.203 98.5669 170.203 98.6548 170.174 98.813C170.61 98.5046 171.135 98.35 171.669 98.3735C172.033 98.3581 172.396 98.4171 172.737 98.5471C173.078 98.6771 173.388 98.8753 173.649 99.1295C173.883 99.3737 174.065 99.6626 174.183 99.9788C174.302 100.295 174.356 100.632 174.341 100.97C174.341 102.728 173.169 103.789 171.223 103.789C170.729 103.825 170.234 103.741 169.78 103.544C169.326 103.347 168.926 103.043 168.615 102.657C168.396 102.346 168.239 101.996 168.152 101.626L170.004 101.339C170.054 101.613 170.207 101.859 170.431 102.025C170.655 102.192 170.934 102.267 171.211 102.236C171.38 102.254 171.551 102.235 171.712 102.18C171.873 102.126 172.021 102.037 172.144 101.92C172.267 101.803 172.363 101.66 172.426 101.502C172.489 101.344 172.516 101.175 172.507 101.005C172.487 100.725 172.376 100.459 172.193 100.246C172.009 100.034 171.761 99.887 171.487 99.827C171.213 99.767 170.926 99.7974 170.671 99.9135C170.415 100.03 170.204 100.225 170.069 100.472L168.357 100.307C168.393 100.032 168.422 99.8093 168.451 99.5514L168.697 96.674C168.697 96.4806 168.727 96.2579 168.733 95.9121C169.119 95.9121 169.213 95.9121 169.658 95.9121H172.413C172.92 95.9252 173.427 95.9037 173.931 95.8477V97.4593C173.432 97.4121 172.931 97.3906 172.43 97.3948H170.291L170.203 98.52Z" fill="white"/>
<path d="M178.726 99.5573C178.532 99.3374 178.383 99.0813 178.289 98.8037C178.194 98.5261 178.155 98.2325 178.175 97.9399C178.138 97.3428 178.338 96.7554 178.732 96.3048C179.121 95.9502 179.635 95.7629 180.162 95.7832C180.423 95.7712 180.683 95.8112 180.929 95.9007C181.174 95.9902 181.399 96.1276 181.591 96.3048C181.952 96.7724 182.148 97.3464 182.148 97.9369C182.148 98.5275 181.952 99.1014 181.591 99.569C181.196 99.9133 180.689 100.103 180.164 100.103C179.64 100.103 179.133 99.9133 178.737 99.569L178.726 99.5573ZM185.172 95.6895L185.659 96.0587L179.652 103.853L179.171 103.484L185.172 95.6895ZM179.429 97.9281C179.429 98.7017 179.669 99.1002 180.138 99.1002C180.607 99.1002 180.841 98.7076 180.841 97.9281C180.841 97.1487 180.601 96.756 180.138 96.756C179.675 96.756 179.452 97.1721 179.452 97.9281H179.429ZM183.262 103.203C183.067 102.98 182.917 102.721 182.823 102.44C182.728 102.159 182.69 101.863 182.711 101.567C182.696 101.272 182.74 100.977 182.841 100.7C182.942 100.422 183.097 100.167 183.297 99.95C183.49 99.7721 183.716 99.6339 183.962 99.5434C184.209 99.4529 184.47 99.4119 184.733 99.4225C185.987 99.4225 186.713 100.214 186.713 101.567C186.731 101.866 186.688 102.166 186.588 102.448C186.487 102.73 186.33 102.988 186.127 103.208C185.937 103.387 185.713 103.525 185.469 103.616C185.224 103.706 184.964 103.747 184.703 103.736C184.182 103.754 183.673 103.569 183.285 103.22L183.262 103.203ZM183.994 101.55C183.994 102.347 184.229 102.751 184.703 102.751C185.178 102.751 185.412 102.353 185.412 101.55C185.412 100.747 185.172 100.419 184.709 100.419C184.246 100.419 184.018 100.823 184.018 101.567L183.994 101.55Z" fill="white"/>
</g>
<defs>
<linearGradient id="paint0_linear_2948_9584" x1="152.704" y1="105.293" x2="208.853" y2="14.1288" gradientUnits="userSpaceOnUse">
<stop stop-opacity="0"/>
<stop offset="0.99"/>
</linearGradient>
<linearGradient id="paint1_linear_2948_9584" x1="137.738" y1="118.896" x2="78.6532" y2="73.507" gradientUnits="userSpaceOnUse">
<stop stop-opacity="0"/>
<stop offset="0.99"/>
</linearGradient>
<linearGradient id="paint2_linear_2948_9584" x1="172.936" y1="38.8028" x2="107.651" y2="129.979" gradientUnits="userSpaceOnUse">
<stop stop-opacity="0"/>
<stop offset="0.99"/>
</linearGradient>
<linearGradient id="paint3_linear_2948_9584" x1="180.794" y1="55.0302" x2="174.342" y2="63.2465" gradientUnits="userSpaceOnUse">
<stop stop-color="#E5C5D5"/>
<stop offset="0.42" stop-color="#EAD4D1"/>
<stop offset="1" stop-color="#F0E9CB"/>
</linearGradient>
<linearGradient id="paint4_linear_2948_9584" x1="174.395" y1="66.5625" x2="180.953" y2="48.3659" gradientUnits="userSpaceOnUse">
<stop stop-opacity="0"/>
<stop offset="0.99"/>
</linearGradient>
<linearGradient id="paint5_linear_2948_9584" x1="189.872" y1="49.0518" x2="195.832" y2="49.0518" gradientUnits="userSpaceOnUse">
<stop stop-color="#E5C5D5"/>
<stop offset="0.42" stop-color="#EAD4D1"/>
<stop offset="1" stop-color="#F0E9CB"/>
</linearGradient>
<linearGradient id="paint6_linear_2948_9584" x1="176.193" y1="46.9357" x2="186.021" y2="48.477" gradientUnits="userSpaceOnUse">
<stop stop-color="#E5C5D5"/>
<stop offset="0.42" stop-color="#EAD4D1"/>
<stop offset="1" stop-color="#F0E9CB"/>
</linearGradient>
<linearGradient id="paint7_linear_2948_9584" x1="160.922" y1="57.2507" x2="172.502" y2="57.2507" gradientUnits="userSpaceOnUse">
<stop stop-color="#E5C5D5"/>
<stop offset="0.42" stop-color="#EAD4D1"/>
<stop offset="1" stop-color="#F0E9CB"/>
</linearGradient>
<linearGradient id="paint8_linear_2948_9584" x1="154.891" y1="66.0406" x2="155.91" y2="119.435" gradientUnits="userSpaceOnUse">
<stop stop-opacity="0"/>
<stop offset="0.99"/>
</linearGradient>
<clipPath id="clip0_2948_9584">
<rect width="255.526" height="161.39" fill="white"/>
</clipPath>
</defs>
</svg>
