<svg width="323" height="242" viewBox="0 0 323 242" fill="none" xmlns="http://www.w3.org/2000/svg">
<path opacity="0.45" d="M161.334 212.258C211.07 212.258 251.39 208.968 251.39 204.909C251.39 200.851 211.07 197.561 161.334 197.561C111.597 197.561 71.2773 200.851 71.2773 204.909C71.2773 208.968 111.597 212.258 161.334 212.258Z" fill="#E6E6E6"/>
<path d="M205.434 113.773H201.377V176.871H205.434V113.773Z" fill="#E6E6E6"/>
<path d="M153.467 116.619C153.535 115.459 153.808 114.32 154.273 113.255C155.008 111.642 158.686 110.028 159.226 111.295C159.767 112.561 159.009 114.296 158.42 115.643C157.987 117.059 157.745 118.527 157.702 120.007L153.467 116.619Z" fill="#F4A28C"/>
<path d="M136.252 108.9C136.252 108.9 145.432 133.238 148.691 132.092C151.95 130.947 153.015 116.031 153.015 116.031L158.395 117.983C158.395 117.983 158.815 144.805 148.207 144.603C137.599 144.402 126.266 124.227 126.266 124.227L136.252 108.9Z" fill="#68E1FD"/>
<path opacity="0.46" d="M136.252 108.9C136.252 108.9 145.432 133.238 148.691 132.092C151.95 130.947 153.015 116.031 153.015 116.031L158.395 117.983C158.395 117.983 158.815 144.805 148.207 144.603C137.599 144.402 126.266 124.227 126.266 124.227L136.252 108.9Z" fill="white"/>
<path d="M97.6081 197.561C97.6081 197.561 96.8014 200.069 94.7041 200.263C92.6068 200.456 92.0824 202.683 93.9539 203.248C95.8254 203.812 100.633 201.207 100.633 201.207L100.496 197.94L97.6081 197.561Z" fill="#68E1FD"/>
<path d="M126.138 197.561C126.138 197.561 126.945 200.069 129.042 200.263C131.14 200.456 131.656 202.683 129.792 203.248C127.929 203.812 123.113 201.207 123.113 201.207L123.25 197.94L126.138 197.561Z" fill="#68E1FD"/>
<path d="M105.27 149.323L97.2031 198.013H101.236L111.384 171.579C114.808 162.423 121.134 154.641 129.397 149.42L132.374 147.572L105.27 149.323Z" fill="#24285B"/>
<path d="M132.366 147.572L128.18 198.013H122.799C122.799 198.013 124.058 160.059 114.354 151.985L132.366 147.572Z" fill="#24285B"/>
<path d="M114.716 85.0482C115.144 87.1382 115.29 89.2759 115.152 91.4047C115.084 91.9124 114.817 92.3724 114.41 92.6839C114.004 92.9953 113.49 93.1329 112.982 93.0664C112.165 93.0036 111.383 92.7071 110.729 92.2123C110.075 91.7174 109.578 91.0451 109.296 90.2754L107.763 87.0487C107.523 86.3775 107.498 85.6485 107.69 84.9623C107.882 84.276 108.283 83.6663 108.836 83.217C110.804 81.4746 114.353 82.733 114.716 85.0482Z" fill="#F4A28C"/>
<path d="M108.047 87.6602L107.547 100.228L114.492 100.002L112.064 90.9514L108.047 87.6602Z" fill="#F4A28C"/>
<path d="M113.789 85.3135C112.616 85.5048 111.424 85.5562 110.239 85.4667C110.638 85.9451 110.89 86.5288 110.964 87.1471C111.039 87.7655 110.933 88.3922 110.659 88.9515C110.397 89.4978 109.955 89.9365 109.406 90.1925C108.857 90.4485 108.236 90.506 107.65 90.3551L107.134 85.4506C107.036 84.7516 107.129 84.0392 107.403 83.3888C107.677 82.7383 108.122 82.1742 108.69 81.7561C109.181 81.3911 109.696 81.0596 110.231 80.7639C111.57 80.0298 113.748 80.7235 114.902 79.6265C115.017 79.5159 115.159 79.4374 115.315 79.3986C115.47 79.3598 115.632 79.3621 115.786 79.4053C115.94 79.4484 116.08 79.5309 116.192 79.6447C116.304 79.7585 116.385 79.8995 116.426 80.054C116.83 81.5141 116.838 83.8937 114.918 84.9424C114.566 85.1306 114.184 85.2562 113.789 85.3135Z" fill="#24285B"/>
<path d="M111.053 88.7897C111.053 88.7897 110.844 87.3216 109.755 87.5716C108.666 87.8217 108.948 89.9271 110.472 89.9916L111.053 88.7897Z" fill="#F4A28C"/>
<path d="M115.079 87.4434L116.321 88.7824C116.391 88.8589 116.44 88.9518 116.464 89.0524C116.489 89.1531 116.487 89.2583 116.46 89.3582C116.432 89.4581 116.38 89.5494 116.308 89.6236C116.236 89.6979 116.146 89.7526 116.047 89.7827L114.627 90.2344L115.079 87.4434Z" fill="#F4A28C"/>
<path opacity="0.31" d="M112.674 92.9125C111.781 92.8007 110.94 92.4306 110.254 91.8477C110.254 91.8477 110.625 94.1144 113.4 96.0746L112.674 92.9125Z" fill="#CE8172"/>
<path d="M132.358 148.039L120.678 148.902L105.278 150.04C104.948 149.564 91.7827 130.575 92.0489 116.071C92.1941 108.416 96.0822 102.019 107.553 100.228L112.272 100.075C113.425 100.044 114.575 99.9446 115.717 99.7764C119.363 99.2198 130.317 98.5503 136.262 108.9C143.466 121.452 132.358 148.039 132.358 148.039Z" fill="#68E1FD"/>
<path opacity="0.08" d="M120.944 149.032L105.278 150.041C104.948 149.565 91.7827 130.576 92.0489 116.072C100.922 111.958 115.249 110.57 115.249 110.57C115.249 110.57 118.169 113.579 114.7 117.734C110.425 122.848 108.916 129.834 111.473 135.996C113.087 139.965 115.507 146.265 120.694 148.903C120.774 148.952 120.857 148.995 120.944 149.032Z" fill="black"/>
<path d="M114.013 105.56C112.612 103.725 110.662 102.386 108.446 101.737C106.23 101.088 103.865 101.165 101.696 101.955C93.5724 104.867 79.5445 111.772 78.036 125.477C75.9064 144.958 107.076 149.233 107.076 149.233L108.076 144.272C108.076 144.272 75.8096 126.235 107.076 117.16C107.044 117.16 119.539 113.03 114.013 105.56Z" fill="#68E1FD"/>
<path opacity="0.46" d="M114.013 105.56C112.612 103.725 110.662 102.386 108.446 101.737C106.23 101.088 103.865 101.165 101.696 101.955C93.5724 104.867 79.5445 111.772 78.036 125.477C75.9064 144.958 107.076 149.233 107.076 149.233L108.076 144.272C108.076 144.272 75.8096 126.235 107.076 117.16C107.044 117.16 119.539 113.03 114.013 105.56Z" fill="white"/>
<path d="M108.094 144.99C108.094 144.99 113.426 145.095 112.49 148.427C111.554 151.758 107.045 149.233 107.045 149.233L108.094 144.99Z" fill="#F4A28C"/>
<path d="M181.709 116.103L181.33 113.941C181.278 113.717 181.145 113.52 180.956 113.388C180.767 113.257 180.536 113.2 180.308 113.23C180.08 113.259 179.871 113.372 179.721 113.546C179.572 113.721 179.492 113.945 179.498 114.175L172.117 114.893L172.351 112.771L162.671 110.633L162.147 112.069C161.718 111.543 161.195 111.1 160.606 110.762C159.542 110.141 158.186 109.786 157.065 110.528C156.5 110.878 156.057 111.393 155.795 112.004C155.534 112.614 155.468 113.291 155.605 113.941C155.808 114.533 156.096 115.093 156.46 115.602C156.785 116.111 157.179 116.572 157.63 116.974C158.291 117.54 159.067 117.956 159.905 118.192L159.098 120.346L171.198 123.048L171.512 120.257L179.974 116.699C180.066 116.871 180.21 117.01 180.386 117.095C180.561 117.181 180.758 117.209 180.95 117.175C181.192 117.132 181.408 116.995 181.55 116.794C181.691 116.594 181.749 116.345 181.709 116.103ZM158.969 116.014C158.289 115.491 157.737 114.821 157.355 114.054C157.137 113.759 157.034 113.395 157.065 113.029C157.17 112.644 157.386 112.299 157.686 112.037C157.794 111.923 157.926 111.834 158.073 111.779C158.219 111.723 158.377 111.701 158.533 111.714C158.928 111.765 159.308 111.9 159.646 112.11C160.407 112.522 161.019 113.162 161.397 113.941L160.397 116.667C159.885 116.538 159.401 116.316 158.969 116.014Z" fill="#FFD200"/>
<path d="M186.582 117.532C185.913 116.929 185.18 116.402 184.396 115.959C184.354 115.938 184.308 115.927 184.262 115.924C184.216 115.922 184.169 115.929 184.126 115.945C184.082 115.96 184.042 115.985 184.008 116.016C183.974 116.048 183.947 116.086 183.928 116.128C183.891 116.212 183.889 116.306 183.92 116.392C183.952 116.478 184.015 116.548 184.097 116.588C184.824 117.011 185.506 117.508 186.13 118.072C186.203 118.119 186.29 118.138 186.376 118.125C186.461 118.112 186.539 118.068 186.594 118.001C186.65 117.935 186.679 117.851 186.677 117.764C186.674 117.678 186.641 117.595 186.582 117.532Z" fill="#E6E6E6"/>
<path d="M189.824 120.951C189.432 120.187 188.882 119.517 188.211 118.982C188.138 118.935 188.051 118.917 187.965 118.93C187.88 118.943 187.802 118.987 187.747 119.053C187.691 119.119 187.662 119.204 187.664 119.29C187.667 119.377 187.7 119.459 187.759 119.523C187.912 119.643 188.057 119.772 188.195 119.91L188.292 119.999V120.039L188.485 120.265C188.605 120.411 188.715 120.565 188.816 120.725C188.872 120.805 188.923 120.889 188.969 120.975V121.023V121.063V121.136C188.986 121.179 189.01 121.218 189.042 121.252C189.074 121.285 189.112 121.312 189.153 121.33C189.195 121.349 189.241 121.359 189.287 121.361C189.332 121.362 189.378 121.354 189.421 121.338C189.464 121.321 189.503 121.297 189.537 121.265C189.57 121.233 189.597 121.196 189.615 121.154C189.634 121.112 189.644 121.066 189.646 121.021C189.647 120.975 189.639 120.929 189.623 120.886L189.824 120.951Z" fill="#E6E6E6"/>
<path d="M191.68 124.526C191.438 123.759 191.082 123.032 190.623 122.372C190.57 122.297 190.489 122.246 190.398 122.231C190.307 122.216 190.214 122.238 190.139 122.291C190.065 122.345 190.014 122.426 189.999 122.516C189.984 122.607 190.005 122.7 190.059 122.775C190.164 122.937 190.268 123.09 190.357 123.251C190.387 123.292 190.414 123.335 190.438 123.38V123.437V123.485V123.55C190.438 123.59 190.438 123.638 190.502 123.679C190.669 124.022 190.809 124.378 190.922 124.743C190.956 124.829 191.022 124.898 191.107 124.936C191.191 124.974 191.287 124.977 191.374 124.945C191.422 124.938 191.468 124.922 191.509 124.897C191.551 124.872 191.587 124.839 191.615 124.8C191.644 124.761 191.664 124.716 191.675 124.669C191.687 124.622 191.688 124.573 191.68 124.526Z" fill="#E6E6E6"/>
<path d="M187.203 115.354C186.435 114.981 185.622 114.709 184.783 114.547C184.697 114.543 184.612 114.571 184.545 114.625C184.478 114.679 184.432 114.756 184.417 114.841C184.403 114.926 184.419 115.014 184.464 115.087C184.509 115.161 184.58 115.216 184.662 115.241C185.437 115.377 186.188 115.619 186.897 115.959C186.94 115.986 186.987 116.004 187.037 116.011C187.087 116.019 187.138 116.015 187.187 116.001C187.236 115.987 187.281 115.963 187.319 115.93C187.357 115.897 187.388 115.856 187.41 115.811C187.431 115.765 187.443 115.715 187.443 115.664C187.444 115.614 187.434 115.564 187.413 115.518C187.393 115.471 187.363 115.43 187.326 115.396C187.288 115.362 187.244 115.337 187.195 115.322L187.203 115.354Z" fill="#E6E6E6"/>
<path d="M192.336 119.137C191.73 118.411 191.024 117.775 190.239 117.249C190.166 117.192 190.075 117.165 189.983 117.174C189.891 117.183 189.806 117.227 189.747 117.298C189.717 117.333 189.695 117.374 189.681 117.418C189.668 117.462 189.663 117.508 189.668 117.554C189.672 117.6 189.686 117.644 189.708 117.684C189.729 117.725 189.759 117.761 189.795 117.79C190.529 118.279 191.192 118.868 191.763 119.54C191.818 119.616 191.901 119.666 191.993 119.681C192.085 119.696 192.179 119.675 192.255 119.621C192.292 119.594 192.324 119.561 192.348 119.522C192.372 119.483 192.388 119.44 192.396 119.395C192.403 119.351 192.402 119.305 192.392 119.26C192.381 119.216 192.362 119.174 192.336 119.137Z" fill="#E6E6E6"/>
<path d="M195.295 123.863C195.069 122.974 194.606 122.163 193.956 121.515C193.922 121.478 193.88 121.449 193.834 121.43C193.787 121.41 193.737 121.401 193.687 121.402C193.637 121.404 193.587 121.416 193.542 121.438C193.497 121.46 193.457 121.491 193.424 121.53C193.392 121.568 193.368 121.613 193.355 121.662C193.341 121.71 193.338 121.761 193.346 121.811C193.353 121.861 193.372 121.908 193.399 121.95C193.426 121.993 193.462 122.028 193.505 122.056L193.561 122.112L193.658 122.217L193.851 122.451C193.972 122.62 194.085 122.798 194.19 122.975C194.192 122.989 194.192 123.002 194.19 123.016L194.263 123.161L194.384 123.443C194.464 123.639 194.529 123.842 194.577 124.048C194.594 124.091 194.618 124.131 194.65 124.164C194.681 124.198 194.719 124.225 194.761 124.244C194.803 124.262 194.848 124.273 194.895 124.274C194.941 124.275 194.986 124.267 195.029 124.25C195.113 124.229 195.187 124.178 195.236 124.107C195.285 124.035 195.306 123.949 195.295 123.863Z" fill="#E6E6E6"/>
<path d="M192.462 128.148C192.447 127.748 192.351 127.356 192.18 126.994C192.145 126.908 192.078 126.839 191.994 126.801C191.952 126.783 191.907 126.773 191.861 126.773C191.815 126.773 191.77 126.783 191.728 126.801C191.642 126.836 191.573 126.902 191.534 126.986C191.514 127.028 191.504 127.073 191.504 127.119C191.504 127.165 191.514 127.211 191.534 127.252C191.607 127.417 191.666 127.587 191.712 127.761C191.746 127.917 191.767 128.076 191.776 128.237C191.78 128.281 191.792 128.323 191.813 128.362C191.834 128.401 191.862 128.435 191.897 128.462C191.932 128.493 191.973 128.516 192.018 128.53C192.062 128.544 192.109 128.549 192.155 128.543C192.202 128.538 192.247 128.524 192.288 128.501C192.328 128.478 192.364 128.448 192.393 128.411C192.422 128.374 192.442 128.331 192.454 128.286C192.466 128.241 192.469 128.194 192.462 128.148Z" fill="#E6E6E6"/>
<path d="M185.655 120.258C185.086 119.267 184.3 118.417 183.356 117.773C183.283 117.718 183.192 117.692 183.1 117.701C183.009 117.71 182.924 117.753 182.864 117.822C182.834 117.857 182.812 117.898 182.799 117.942C182.785 117.986 182.78 118.032 182.785 118.078C182.789 118.124 182.803 118.168 182.825 118.209C182.847 118.249 182.876 118.285 182.912 118.314C183.814 118.943 184.56 119.771 185.09 120.734C185.116 120.772 185.149 120.804 185.188 120.829C185.226 120.854 185.27 120.87 185.315 120.878C185.36 120.886 185.406 120.884 185.451 120.873C185.496 120.862 185.537 120.842 185.574 120.815C185.623 120.789 185.665 120.753 185.696 120.708C185.728 120.663 185.749 120.611 185.757 120.557C185.765 120.503 185.76 120.447 185.742 120.395C185.724 120.343 185.694 120.296 185.655 120.258Z" fill="#E6E6E6"/>
<path d="M188.163 124.655C187.985 123.831 187.657 123.046 187.195 122.34C187.142 122.264 187.06 122.212 186.969 122.197C186.877 122.181 186.783 122.202 186.707 122.255C186.631 122.309 186.58 122.39 186.564 122.482C186.548 122.573 186.569 122.667 186.622 122.743C186.678 122.824 186.729 122.907 186.776 122.993L186.848 123.106V123.171C186.847 123.198 186.847 123.225 186.848 123.252L186.913 123.373C186.913 123.461 186.994 123.55 187.026 123.639C187.058 123.727 187.163 123.986 187.219 124.163C187.251 124.248 187.278 124.334 187.3 124.421C187.3 124.47 187.3 124.518 187.34 124.566C187.344 124.593 187.344 124.62 187.34 124.647C187.354 124.738 187.402 124.821 187.473 124.879C187.545 124.937 187.636 124.967 187.728 124.962C187.777 124.973 187.828 124.975 187.877 124.965C187.927 124.956 187.973 124.936 188.015 124.907C188.056 124.878 188.09 124.84 188.116 124.797C188.142 124.754 188.158 124.705 188.163 124.655Z" fill="#E6E6E6"/>
<path d="M188.43 129.68V127.873C188.42 127.781 188.375 127.697 188.303 127.638C188.231 127.58 188.139 127.553 188.047 127.562C187.955 127.572 187.87 127.618 187.812 127.69C187.754 127.762 187.727 127.854 187.736 127.946C187.736 128.543 187.736 129.148 187.736 129.753C187.741 129.798 187.755 129.842 187.778 129.883C187.8 129.923 187.83 129.958 187.866 129.987C187.902 130.015 187.943 130.036 187.987 130.049C188.032 130.061 188.078 130.065 188.123 130.059C188.213 130.045 188.293 129.999 188.35 129.929C188.407 129.859 188.435 129.77 188.43 129.68Z" fill="#E6E6E6"/>
<path d="M179.178 168.9H227.634L224.004 203.329H182.816L179.178 168.9Z" fill="#C9C9C9"/>
<path d="M240.515 126.751C236.799 133.107 231.037 138.015 224.171 140.674C212.878 144.941 205.029 140.085 205.029 140.085C205.029 140.085 207.715 131.292 219.049 127.033C225.966 124.511 233.534 124.412 240.515 126.751Z" fill="#E6E6E6"/>
<path opacity="0.05" d="M240.515 126.75C236.799 133.106 231.037 138.015 224.171 140.673C212.878 144.94 205.029 140.084 205.029 140.084L240.515 126.75Z" fill="black"/>
<path d="M166.287 140.133C169.997 146.495 175.756 151.409 182.622 154.073C193.956 158.332 201.764 153.476 201.764 153.476C201.764 153.476 199.086 144.683 187.753 140.424C180.837 137.9 173.269 137.797 166.287 140.133Z" fill="#E6E6E6"/>
<path opacity="0.05" d="M166.287 140.133C169.997 146.494 175.756 151.408 182.622 154.072C193.956 158.331 201.764 153.475 201.764 153.475L166.287 140.133Z" fill="black"/>
<path d="M204.142 118.434C210.766 118.434 216.137 116.264 216.137 113.586C216.137 110.909 210.766 108.738 204.142 108.738C197.517 108.738 192.146 110.909 192.146 113.586C192.146 116.264 197.517 118.434 204.142 118.434Z" fill="#C9C9C9"/>
<path d="M204.143 94.7595C222.097 94.7595 236.652 80.2049 236.652 62.2509C236.652 44.2968 222.097 29.7422 204.143 29.7422C186.189 29.7422 171.635 44.2968 171.635 62.2509C171.635 80.2049 186.189 94.7595 204.143 94.7595Z" fill="#FFD200"/>
<path d="M217.387 92.4355H190.896V113.586H217.387V92.4355Z" fill="#24285B"/>
<path d="M190.141 59.9277H218.148L209.428 94.7596H198.853L190.141 59.9277Z" stroke="#24285B" stroke-width="0.806667" stroke-miterlimit="10"/>
</svg>
