<svg width="384" height="276" viewBox="0 0 384 276" fill="none" xmlns="http://www.w3.org/2000/svg">
<g clip-path="url(#clip0_3029_7843)">
<path d="M10.1602 274.813C10.1602 275.15 10.4308 275.42 10.7678 275.42H383.133C383.47 275.42 383.74 275.15 383.74 274.813C383.74 274.476 383.47 274.205 383.133 274.205H10.7678C10.4308 274.205 10.1602 274.476 10.1602 274.813Z" fill="#3F3D58"/>
<path d="M129.398 48.5831H9.97221C5.41779 48.5831 1.71094 44.8762 1.71094 40.3218C1.71094 35.7674 5.41779 32.0605 9.97221 32.0605H129.398C133.953 32.0605 137.659 35.7674 137.659 40.3218C137.659 44.8762 133.953 48.5831 129.398 48.5831ZM9.97221 33.0817C5.97943 33.0817 2.73211 36.329 2.73211 40.3218C2.73211 44.3146 5.97943 47.5619 9.97221 47.5619H129.398C133.391 47.5619 136.638 44.3146 136.638 40.3218C136.638 36.329 133.391 33.0817 129.398 33.0817H9.97221Z" fill="#E2E3E4"/>
<path d="M129.397 145.262H9.97082C5.55426 145.262 1.96484 141.673 1.96484 137.256C1.96484 132.839 5.55426 129.25 9.97082 129.25H129.397C133.813 129.25 137.403 132.839 137.403 137.256C137.403 141.673 133.813 145.262 129.397 145.262Z" fill="#86E8DB"/>
<path d="M90.2613 16.012H8.00598C3.58942 16.012 0 12.4225 0 8.00598C0 3.58942 3.58942 0 8.00598 0H90.2613C94.6779 0 98.2673 3.58942 98.2673 8.00598C98.2673 12.4225 94.6779 16.012 90.2613 16.012Z" fill="#E2E3E4"/>
<path d="M129.398 80.8917H9.97221C5.41779 80.8917 1.71094 77.1848 1.71094 72.6304C1.71094 68.076 5.41779 64.3691 9.97221 64.3691H129.398C133.953 64.3691 137.659 68.076 137.659 72.6304C137.659 77.1848 133.953 80.8917 129.398 80.8917ZM9.97221 65.3903C5.97943 65.3903 2.73211 68.6376 2.73211 72.6304C2.73211 76.6232 5.97943 79.8705 9.97221 79.8705H129.398C133.391 79.8705 136.638 76.6232 136.638 72.6304C136.638 68.6376 133.391 65.3903 129.398 65.3903H9.97221Z" fill="#E2E3E4"/>
<path d="M129.398 113.208H9.97221C5.41779 113.208 1.71094 109.501 1.71094 104.947C1.71094 100.392 5.41779 96.6855 9.97221 96.6855H129.398C133.953 96.6855 137.659 100.392 137.659 104.947C137.659 109.501 133.953 113.208 129.398 113.208ZM9.97221 97.7067C5.97943 97.7067 2.73211 100.954 2.73211 104.947C2.73211 108.94 5.97943 112.187 9.97221 112.187H129.398C133.391 112.187 136.638 108.94 136.638 104.947C136.638 100.954 133.391 97.7067 129.398 97.7067H9.97221Z" fill="#E2E3E4"/>
<path d="M5.86672 26.127H37.1656C37.9111 26.127 38.5187 26.7294 38.5187 27.48C38.5187 28.2255 37.9111 28.8331 37.1656 28.8331H5.86672C5.12127 28.8331 4.51367 28.2306 4.51367 27.48C4.51367 26.7346 5.12127 26.127 5.86672 26.127Z" fill="#E2E3E4"/>
<path d="M5.86672 59.2031H37.1656C37.9111 59.2031 38.5187 59.8056 38.5187 60.5511C38.5187 61.2965 37.9111 61.9041 37.1656 61.9041H5.86672C5.12127 61.9041 4.51367 61.3016 4.51367 60.5562C4.51367 59.8107 5.12127 59.2031 5.86672 59.2031Z" fill="#E2E3E4"/>
<path d="M5.86672 92.2832H37.1656C37.9111 92.2832 38.5187 92.8857 38.5187 93.6363C38.5187 94.3817 37.9111 94.9842 37.1656 94.9842H5.86672C5.12127 94.9842 4.51367 94.3817 4.51367 93.6311C4.51367 92.8857 5.12127 92.2832 5.86672 92.2832Z" fill="#E2E3E4"/>
<path d="M228.274 67.5294L216.857 71.2873V54.8516H227.217L228.274 67.5294Z" fill="#9F616A"/>
<path d="M218.27 59.4001C224.553 59.4001 229.646 54.307 229.646 48.0243C229.646 41.7416 224.553 36.6484 218.27 36.6484C211.988 36.6484 206.895 41.7416 206.895 48.0243C206.895 54.307 211.988 59.4001 218.27 59.4001Z" fill="#9F616A"/>
<path d="M221.396 46.8968C219.491 46.8406 218.24 44.9157 217.5 43.1593C216.76 41.4029 215.999 39.386 214.232 38.661C212.787 38.0687 210.239 42.0768 209.101 41.0097C207.911 39.8966 209.07 34.1832 210.331 33.1569C211.593 32.1306 213.318 31.9315 214.942 31.8549C218.904 31.6711 222.892 31.9928 226.777 32.8046C229.182 33.305 231.653 34.0606 233.389 35.7966C235.585 38.0024 236.147 41.3263 236.305 44.4357C236.468 47.6167 236.284 50.9457 234.737 53.7284C233.19 56.5111 229.953 58.5636 226.849 57.8539C226.537 56.169 226.854 54.4381 226.976 52.7225C227.094 51.0121 226.971 49.1638 225.925 47.8005C224.883 46.4372 222.647 45.896 221.431 47.1061" fill="#2F2E43"/>
<path d="M235.391 50.8379C236.53 50.0057 237.893 49.3062 239.292 49.4798C240.803 49.6636 242.085 50.9094 242.473 52.385C242.861 53.8606 242.427 55.4843 241.487 56.6893C240.553 57.8942 239.159 58.6908 237.689 59.089C236.836 59.3188 235.902 59.4158 235.09 59.0686C233.895 58.5529 233.247 57.0262 233.716 55.811" fill="#2F2E43"/>
<path d="M191.858 157.873C191.097 161.61 192.491 165.026 194.963 165.501C197.434 165.976 200.053 163.326 200.809 159.588C201.13 158.097 201.079 156.555 200.661 155.085L210.071 96.4952L198.302 94.2793L193.758 153.763C192.793 154.967 192.144 156.377 191.858 157.878V157.873Z" fill="#9F616A"/>
<path d="M216.734 63.7461H208.702C203.025 64.609 201.483 67.6368 200.191 73.2328C198.22 81.7698 195.703 93.1354 196.203 93.3039C197.005 93.5694 210.678 100.003 217.648 98.5323L216.734 63.7461Z" fill="#E2E3E4"/>
<path d="M224.5 250.369H213.809V265.539H224.5V250.369Z" fill="#9F616A"/>
<path d="M203.398 274.721C202.275 274.721 201.274 274.696 200.518 274.624C197.68 274.364 194.968 272.265 193.605 271.04C192.992 270.489 192.798 269.61 193.115 268.855C193.345 268.314 193.799 267.905 194.366 267.747L201.871 265.602L214.023 257.402L214.161 257.647C214.212 257.739 215.407 259.889 215.805 261.339C215.958 261.89 215.918 262.35 215.688 262.707C215.53 262.952 215.305 263.095 215.126 263.177C215.346 263.407 216.035 263.877 218.159 264.214C221.258 264.704 221.912 261.492 221.937 261.359L221.958 261.252L222.05 261.191C223.525 260.241 224.434 259.807 224.746 259.899C224.94 259.955 225.266 260.057 226.15 268.804C226.237 269.079 226.854 271.091 226.436 273.016C225.981 275.109 216.832 274.39 214.999 274.226C214.948 274.231 208.095 274.721 203.403 274.721H203.398Z" fill="#2F2E43"/>
<path d="M254.945 238.452L245.873 244.109L253.9 256.981L262.972 251.323L254.945 238.452Z" fill="#9F616A"/>
<path d="M242.896 272.641C241.639 272.641 240.486 272.488 239.664 272.345C238.857 272.202 238.224 271.559 238.091 270.752C237.999 270.17 238.167 269.583 238.566 269.149L243.799 263.359L249.773 249.971L250.018 250.104C250.11 250.155 252.26 251.345 253.368 252.366C253.791 252.754 254.001 253.168 253.991 253.592C253.985 253.888 253.873 254.123 253.761 254.291C254.067 254.373 254.899 254.403 256.88 253.566C259.77 252.346 258.627 249.272 258.576 249.144L258.535 249.042L258.581 248.945C259.331 247.357 259.867 246.51 260.184 246.423C260.383 246.367 260.71 246.28 266.086 253.239C266.306 253.423 267.894 254.807 268.558 256.66C269.277 258.677 261.134 262.91 259.495 263.737C259.444 263.778 250.922 269.971 247.419 271.733C246.031 272.432 244.386 272.647 242.89 272.647L242.896 272.641Z" fill="#2F2E43"/>
<path d="M232.373 123.516H202.437L199.721 151.363L211.607 254.256H226.889L220.777 194.829L245.566 248.481L259.148 238.974L239.791 188.886C239.791 188.886 246.705 145.251 241.272 134.381C235.84 123.516 232.373 123.516 232.373 123.516Z" fill="#2F2E43"/>
<path d="M247.266 125.21H199.721L213.986 63.7461H234.701L247.266 125.21Z" fill="#E2E3E4"/>
<path d="M251.547 157.873C252.307 161.61 250.913 165.026 248.442 165.501C245.971 165.976 243.352 163.326 242.596 159.588C242.274 158.097 242.325 156.555 242.744 155.085L233.334 96.4952L245.103 94.2793L249.647 153.763C250.612 154.967 251.261 156.377 251.547 157.878V157.873Z" fill="#9F616A"/>
<path d="M226.67 63.7461H234.701C240.379 64.609 241.921 67.6368 243.213 73.2328C245.184 81.7698 247.701 93.1354 247.2 93.3039C246.399 93.5694 232.725 100.003 225.756 98.5323L226.67 63.7461Z" fill="#E2E3E4"/>
</g>
<defs>
<clipPath id="clip0_3029_7843">
<rect width="383.741" height="275.42" fill="white"/>
</clipPath>
</defs>
</svg>
