<svg width="338" height="253" viewBox="0 0 338 253" fill="none" xmlns="http://www.w3.org/2000/svg">
<g clip-path="url(#clip0_3779_12383)">
<path d="M153.656 144.349C159.175 142.39 164.66 143.65 165.906 147.163C167.152 150.675 163.688 155.109 158.167 157.068C155.972 157.881 153.615 158.156 151.292 157.871L127.803 165.876L124.281 154.773L147.811 148.061C149.435 146.374 151.44 145.102 153.656 144.349Z" fill="#FFB4B4"/>
<path d="M145.112 160.973L98.7536 182.479L98.6374 182.533L60.9442 159.517C57.4634 157.391 55.3477 153.688 55.2847 149.609C55.2222 145.53 57.2235 141.763 60.6382 139.532C64.916 136.736 70.4755 136.998 74.4721 140.182L102.265 162.328L141.653 147.866L145.112 160.973Z" fill="#E4E4E4"/>
<path d="M-63 233.564C-63 233.881 -62.7454 234.136 -62.4283 234.136H315.301C315.618 234.136 315.872 233.881 315.872 233.564C315.872 233.247 315.618 232.992 315.301 232.992H-62.4283C-62.7454 232.992 -63 233.247 -63 233.564Z" fill="#3F3D56"/>
<path d="M85.4672 144.258L88.5738 124.842L67.6046 116.299L64.498 145.811L85.4672 144.258Z" fill="#FFB4B4"/>
<path d="M80.1687 131.084C91.9786 131.084 101.552 121.51 101.552 109.7C101.552 97.8902 91.9786 88.3164 80.1687 88.3164C68.3589 88.3164 58.7852 97.8902 58.7852 109.7C58.7852 121.51 68.3589 131.084 80.1687 131.084Z" fill="#FFB4B4"/>
<path d="M58.9427 248.957C60.3406 249.572 61.8347 250.158 63.4392 250.715C87.3964 259.021 115.173 240.776 131.103 227.623C139.13 220.989 144.145 215.647 144.145 215.647L159.864 223.506L170.332 228.737H170.336L172.368 229.761C172.373 229.761 172.378 229.765 172.378 229.765L178.57 232.859L188.149 237.649L189.302 238.225L190.09 238.456L204.195 242.549L207.077 232.46C207.077 232.46 206.092 231.581 204.367 230.059C193.866 220.806 155.968 187.856 146.067 185.382C141.575 184.258 131.991 187.942 121.956 192.862C106.218 200.577 89.3804 211.323 89.3804 211.323L82.6549 201.715L59.4999 206.942L50.7135 208.926L45.4244 210.122C45.4244 210.122 28.9757 235.78 58.9427 248.957Z" fill="#2F2E41"/>
<path d="M203.233 231.019C203.233 231.019 206.596 227.656 208.518 229.097C210.439 230.539 212.361 232.46 212.361 232.46C212.361 232.46 227.253 233.421 227.733 240.627C228.214 247.833 217.645 250.235 217.645 250.235C217.645 250.235 183.057 253.117 183.057 248.313C183.057 243.509 188.15 237.649 188.15 237.649C188.15 237.649 204.674 234.862 203.233 231.019Z" fill="#2F2E41"/>
<path d="M58.9427 248.958C84.7879 239.461 107.155 215.647 107.155 215.647L131.103 227.623L151.159 237.649L152.312 238.226L167.204 242.549L170.087 232.461C170.087 232.461 169.102 231.582 167.377 230.059C165.581 228.479 162.982 226.201 159.864 223.507C149.612 214.648 133.702 201.231 121.956 192.862C106.218 200.577 89.3804 211.324 89.3804 211.324L82.6549 201.716L59.4999 206.942C55.1572 209.556 52.3901 211.324 52.3901 211.324L50.7135 208.926L45.4244 210.123C45.4244 210.123 28.9757 235.781 58.9427 248.958Z" fill="#2F2E41"/>
<path d="M166.243 231.02C166.243 231.02 169.606 227.657 171.527 229.098C173.449 230.539 175.37 232.461 175.37 232.461C175.37 232.461 190.263 233.422 190.743 240.628C191.223 247.834 180.655 250.236 180.655 250.236C180.655 250.236 146.066 253.118 146.066 248.314C146.066 243.51 151.159 237.65 151.159 237.65C151.159 237.65 167.684 234.863 166.243 231.02Z" fill="#2F2E41"/>
<path d="M47.905 173.22C48.9423 159.16 54.6507 145.595 63.9788 135.023L64.0704 134.919L88.3617 139.777L93.6773 155.483C97.0645 165.491 96.258 176.63 91.4648 186.045L85.5471 197.669L87.5033 208.429L45.4346 210.363L45.1641 210.375L47.905 173.22Z" fill="#E4E4E4"/>
<path d="M263.104 43.7148H280.631V44.3757C280.631 48.7259 277.099 52.2577 272.749 52.2577H270.986C266.635 52.2577 263.104 48.7259 263.104 44.3757V43.7148Z" fill="#3F3D56"/>
<path d="M319.237 34.0826L288.996 27.6376L288.838 25.8788C288.826 25.7485 288.809 25.619 288.788 25.4901L303.091 19.1916C304.564 16.5404 307.068 18.0133 307.068 18.0133C307.068 18.0133 311.928 18.7498 310.897 14.0365C309.866 9.32321 303.238 12.7109 303.238 12.7109L285.861 18.1233L283.022 11.3784C282.148 9.30221 280.114 7.95215 277.862 7.95215H267.753C265.59 7.95215 263.62 9.19821 262.694 11.1528L259.365 18.176L241.818 12.7109C241.818 12.7109 235.19 9.32321 234.159 14.0365C233.128 18.7498 237.989 18.0133 237.989 18.0133C237.989 18.0133 240.493 16.5404 241.966 19.1916L255.962 25.3551L255.688 25.9333C255.405 26.5304 255.232 27.1716 255.173 27.8269L225.819 34.0826C223.348 34.6093 221.972 37.2599 222.962 39.5842L223.654 41.2078C224.66 43.5669 227.627 44.444 229.678 42.9043C230.405 42.3578 230.919 41.5612 230.919 40.4013L255.515 34.6752C257.003 41.2015 262.842 46.072 269.818 46.072H274.604C281.686 46.072 287.513 41.0785 288.939 34.5351L314.138 40.4013C314.138 41.5612 314.651 42.3578 315.379 42.9043C317.43 44.444 320.397 43.5669 321.402 41.2078L322.094 39.5842C323.085 37.2599 321.709 34.6093 319.237 34.0826Z" fill="#3F3D56"/>
<path d="M305.154 7.59823L290.278 0.191406C290.278 0.191406 288.739 0.257513 289.434 1.03455C290.13 1.8116 306.185 9.32337 306.185 9.32337L305.154 7.59823Z" fill="#86E8DB"/>
<path d="M309.131 10.6489C309.131 10.6489 309.867 13.4474 312.371 15.0676C314.875 16.6878 328.868 20.6646 328.868 20.6646L330.93 19.339L315.464 10.7962L310.309 10.207L309.131 10.6489Z" fill="#86E8DB"/>
<path d="M318.969 35.4783C318.969 35.4783 321.726 36.3556 324.436 35.1093C327.145 33.8629 337.999 24.1779 337.999 24.1779L337.984 21.7266L322.486 30.2092L319.227 34.2467L318.969 35.4783Z" fill="#86E8DB"/>
<path d="M320.33 35.8237C320.33 35.8237 318.013 34.0904 315.044 34.3791C312.076 34.6678 298.646 40.2566 298.646 40.2566L297.855 42.5772L315.279 39.6476L319.682 36.9026L320.33 35.8237Z" fill="#86E8DB"/>
<path d="M239.904 7.59823L254.78 0.191406C254.78 0.191406 256.319 0.257513 255.623 1.03455C254.928 1.8116 238.873 9.32337 238.873 9.32337L239.904 7.59823Z" fill="#86E8DB"/>
<path d="M235.928 10.6489C235.928 10.6489 235.191 13.4474 232.687 15.0676C230.183 16.6878 216.191 20.6646 216.191 20.6646L214.129 19.339L229.594 10.7962L234.749 10.207L235.928 10.6489Z" fill="#86E8DB"/>
<path d="M226.089 35.4783C226.089 35.4783 223.332 36.3556 220.622 35.1093C217.913 33.8629 207.059 24.1779 207.059 24.1779L207.073 21.7266L222.572 30.2092L225.831 34.2467L226.089 35.4783Z" fill="#86E8DB"/>
<path d="M224.727 35.8237C224.727 35.8237 227.044 34.0904 230.012 34.3791C232.981 34.6678 246.411 40.2566 246.411 40.2566L247.201 42.5772L229.778 39.6476L225.374 36.9026L224.727 35.8237Z" fill="#86E8DB"/>
<path d="M307.29 15.4357C309.568 15.4357 311.414 13.5893 311.414 11.3116C311.414 9.03392 309.568 7.1875 307.29 7.1875C305.012 7.1875 303.166 9.03392 303.166 11.3116C303.166 13.5893 305.012 15.4357 307.29 15.4357Z" fill="#3F3D56"/>
<path d="M237.253 15.8039C239.531 15.8039 241.377 13.9574 241.377 11.6798C241.377 9.40209 239.531 7.55566 237.253 7.55566C234.975 7.55566 233.129 9.40209 233.129 11.6798C233.129 13.9574 234.975 15.8039 237.253 15.8039Z" fill="#3F3D56"/>
<path d="M144.517 181.346L144.125 138.295C144.105 136.012 145.641 134.048 147.862 133.519L158.572 130.969C159.624 130.719 160.713 130.959 161.562 131.627C162.411 132.296 162.899 133.299 162.902 134.379L163.03 180.482C163.033 181.261 162.731 181.993 162.181 182.544C161.631 183.096 160.9 183.4 160.121 183.4H146.589C145.456 183.4 144.527 182.478 144.517 181.346Z" fill="#2F2E41"/>
<path d="M148.426 134.425L149.449 134.179V135.727C149.449 136.221 149.901 136.586 150.371 136.472L154.502 135.466C155.103 135.319 155.528 134.769 155.528 134.136V132.719L157.506 132.244C158.902 131.909 160.241 132.987 160.249 134.453L160.503 179.165C160.514 181.01 159.054 182.512 157.249 182.512H147.035C145.92 182.512 145.013 181.594 145.002 180.454L144.61 139.401C144.587 137.034 146.172 134.966 148.426 134.425Z" fill="#86E8DB"/>
<path d="M162.804 163.68C168.546 162.525 173.795 164.551 174.53 168.205C175.264 171.859 171.205 175.756 165.462 176.911C163.174 177.403 160.801 177.341 158.542 176.729L134.154 181.314L132.246 169.824L156.491 166.523C158.338 165.085 160.503 164.11 162.804 163.68Z" fill="#FFB4B4"/>
<path d="M68.8772 165.519C65.7333 162.92 64.1656 158.953 64.6834 154.907C65.201 150.861 67.7174 147.416 71.4144 145.693C76.0457 143.533 81.5113 144.582 85.0151 148.302L109.379 174.173L150.165 165.51L150.423 165.455L151.984 178.92L102.917 193.657L68.8772 165.519Z" fill="#E4E4E4"/>
<path d="M92.6096 89.6784C96.5748 92.6895 99.3642 97.0541 100.066 101.983C100.583 105.61 100.093 109.901 96.8261 113.859C92.5319 119.062 91.8363 128.706 92.0588 136.204C92.196 140.831 88.1813 144.504 83.5841 143.964C73.7743 142.812 68.953 166.892 61.7574 170.25C53.4748 174.116 46.3848 170.25 46.3848 170.25C46.3848 170.25 48.7867 143.348 54.0711 135.662C57.3918 130.832 57.8547 113.294 58.4542 106.283C59.0959 98.7775 63.0378 91.8619 69.3836 87.8029C75.2016 84.0814 83.1699 82.5103 92.6096 89.6784Z" fill="#2F2E41"/>
</g>
<defs>
<clipPath id="clip0_3779_12383">
<rect width="337" height="253" fill="white" transform="translate(0.5)"/>
</clipPath>
</defs>
</svg>
