<svg width="469" height="251" viewBox="0 0 469 251" fill="none" xmlns="http://www.w3.org/2000/svg">
<g clip-path="url(#clip0_3779_12320)">
<path d="M201.377 30.0955H187.812C185.39 30.0955 183.42 28.1252 183.42 25.7038V4.83702C183.42 2.41557 185.39 0.445312 187.812 0.445312H201.377C203.798 0.445312 205.769 2.41557 205.769 4.83702V25.7037C205.769 28.1252 203.798 30.0955 201.377 30.0955Z" fill="#E6E6E6"/>
<path d="M231.07 30.0955H217.504C215.083 30.0955 213.112 28.1252 213.112 25.7038V4.83702C213.112 2.41557 215.083 0.445312 217.504 0.445312H231.07C233.491 0.445312 235.461 2.41557 235.461 4.83702V25.7037C235.461 28.1252 233.491 30.0955 231.07 30.0955Z" fill="#CCCCCC"/>
<path d="M262.708 30.0955H249.143C246.721 30.0955 244.751 28.1252 244.751 25.7038V4.83702C244.751 2.41557 246.721 0.445312 249.143 0.445312H262.708C265.129 0.445312 267.1 2.41557 267.1 4.83702V25.7037C267.1 28.1252 265.129 30.0955 262.708 30.0955Z" fill="#E6E6E6"/>
<path d="M114.309 97.8154C116.66 95.4232 119.8 94.697 121.322 96.1932C122.844 97.6895 122.172 100.841 119.82 103.234C118.894 104.202 117.749 104.935 116.481 105.371L106.393 115.381L101.797 110.547L112.23 101.192C112.643 99.9164 113.356 98.7586 114.309 97.8154Z" fill="#A0616A"/>
<path d="M82.0468 89.553L92.6238 113.017L109.514 103.875L115.558 107.083C115.558 107.083 101.751 130.166 92.2974 127.538C82.8437 124.91 66.0565 101.084 69.0811 93.7311C72.1058 86.3777 82.0468 89.553 82.0468 89.553Z" fill="#3F3D56"/>
<path d="M377.019 10.9482H401.986L411.767 18.0398L386.265 19.4581L377.019 10.9482Z" fill="#E6E6E6"/>
<path d="M0.5 246.522C0.5 246.99 0.875873 247.366 1.34394 247.366H422.787C423.255 247.366 423.631 246.99 423.631 246.522C423.631 246.054 423.255 245.678 422.787 245.678H1.34394C0.875873 245.678 0.5 246.054 0.5 246.522Z" fill="#3F3D56"/>
<path d="M427.481 66.9911L437.307 71.6456C433.277 66.0214 429.804 57.2376 427.945 50.248C424.797 56.7589 419.723 64.7253 414.7 69.484L425.085 66.8124C418.686 98.1735 394.618 120.688 367.056 120.688L366.666 121.82C395.455 121.82 420.947 99.6184 427.481 66.9911Z" fill="#3F3D56"/>
<path d="M224.662 50.6806L234.488 55.335C230.458 49.7108 226.985 40.9271 225.126 33.9375C221.979 40.4483 216.904 48.4148 211.882 53.1734L222.266 50.5019C215.867 81.863 191.799 104.377 164.238 104.377L163.848 105.51C192.636 105.51 218.129 83.3078 224.662 50.6806Z" fill="#3F3D56"/>
<path d="M375.368 145.056C373.973 143.395 372.303 142.266 370.803 141.832L353.164 121.892C353.164 121.892 351.691 103.331 350.513 96.8492C349.334 90.3675 341.379 92.1352 341.379 92.1352L342.263 110.696L347.272 130.731L367.912 148.254C368.272 148.911 368.714 149.567 369.244 150.197C371.755 153.188 375.161 154.462 376.852 153.042C378.543 151.622 377.879 148.047 375.368 145.056Z" fill="#FFB6B6"/>
<path d="M290.639 145.056C292.033 143.395 293.703 142.266 295.203 141.832L312.842 121.892C312.842 121.892 314.315 103.331 315.494 96.8492C316.672 90.3675 324.627 92.1352 324.627 92.1352L323.743 110.696L318.734 130.731L298.094 148.254C297.734 148.911 297.292 149.567 296.763 150.197C294.252 153.188 290.845 154.462 289.154 153.042C287.463 151.622 288.128 148.047 290.639 145.056Z" fill="#FFB6B6"/>
<path d="M329.447 89.6323L331.493 81.7662L339.464 81.3828L341.849 92.2259L329.447 89.6323Z" fill="#FFB6B6"/>
<path opacity="0.1" d="M329.447 89.6323L331.493 81.7662L339.464 81.3828L341.849 92.2259L329.447 89.6323Z" fill="black"/>
<path d="M309.093 218.498L301.627 218.071L302.606 240.984L307.665 241.273L309.093 218.498Z" fill="#FFB6B6"/>
<path d="M301.959 233.739L304.551 234.922L304.548 236.493C304.548 236.493 305.174 234.674 308.531 234.278L308.931 235.801C308.931 235.801 310.233 237.296 310.01 239.999L309.155 247.238L306.624 247.18L306.215 242.142C306.215 242.142 305.517 240.999 302.305 246.431C302.305 246.431 298.766 247.323 293.286 245.485C292.533 245.233 292.01 244.529 292.019 243.735C292.025 243.297 292.196 242.892 292.746 242.746C294.145 242.376 295.512 242.845 296.415 241.729C297.319 240.612 301.959 233.739 301.959 233.739Z" fill="#2F2E41"/>
<path d="M349.161 218.498L341.695 218.071L342.674 240.984L347.733 241.273L349.161 218.498Z" fill="#FFB6B6"/>
<path d="M342.028 233.739L344.62 234.922L344.616 236.493C344.616 236.493 345.242 234.674 348.599 234.278L349 235.801C349 235.801 350.302 237.296 350.078 239.999L349.224 247.238L346.692 247.18L346.283 242.142C346.283 242.142 345.586 240.999 342.373 246.431C342.373 246.431 338.834 247.323 333.354 245.485C332.601 245.233 332.078 244.529 332.088 243.735C332.093 243.297 332.265 242.892 332.814 242.746C334.214 242.376 335.58 242.845 336.484 241.729C337.387 240.612 342.028 233.739 342.028 233.739Z" fill="#2F2E41"/>
<path d="M335.576 86.3981C340.457 86.3981 344.415 82.4409 344.415 77.5594C344.415 72.6779 340.457 68.7207 335.576 68.7207C330.694 68.7207 326.737 72.6779 326.737 77.5594C326.737 82.4409 330.694 86.3981 335.576 86.3981Z" fill="#FFB6B6"/>
<path d="M340.588 79.0283C340.588 79.0283 336.702 72.6698 332.812 73.3716C328.922 74.0734 326.894 74.7071 326.894 74.7071C326.894 74.7071 325.31 69.6374 330.629 67.2051C330.629 67.2051 323.102 60.9037 331.124 56.8596C339.145 52.8155 344.137 56.7349 344.137 56.7349C344.137 56.7349 350.776 62.3653 343.415 67.576C343.415 67.576 349.786 74.8332 343.351 81.7654C343.351 81.7654 344.487 76.4869 342.942 77.569C341.396 78.6511 340.588 79.0283 340.588 79.0283Z" fill="#2F2E41"/>
<path d="M341.527 90.2212L329.447 88.748L320.167 96.2609C320.167 96.2609 315.551 109.121 318.988 116.885C319.071 117.071 319.136 129.995 319.136 129.995H344.8C344.8 129.995 344.775 121.198 345.756 118.012C345.896 117.557 346.057 117.216 346.241 117.032C347.714 115.559 351.249 106.131 349.482 102.006C347.714 97.8814 341.527 90.2212 341.527 90.2212Z" fill="#E6E6E6"/>
<path d="M318.989 129.405L302.784 180.964L299.249 221.622H309.119L317.515 183.911L329.079 162.081L340.496 224.569H350.459L350.219 140.012L344.78 129.405H318.989Z" fill="#2F2E41"/>
<path d="M332.741 192.804C354.624 192.804 372.364 175.064 372.364 153.18C372.364 131.297 354.624 113.557 332.741 113.557C310.857 113.557 293.117 131.297 293.117 153.18C293.117 175.064 310.857 192.804 332.741 192.804Z" fill="#86E8DB"/>
<path d="M77.409 245.933L85.1213 245.932L88.7901 216.185L77.4075 216.185L77.409 245.933Z" fill="#A0616A"/>
<path d="M103.832 245.758C104.072 246.162 104.199 247.468 104.199 247.938C104.199 249.384 103.027 250.556 101.582 250.556H77.6975C76.7113 250.556 75.9118 249.756 75.9118 248.77V247.776C75.9118 247.776 74.7303 244.787 77.1628 241.103C77.1628 241.103 80.1862 243.988 84.7038 239.47L86.036 237.057L95.6794 244.109L101.025 244.767C102.194 244.911 103.231 244.745 103.832 245.758Z" fill="#2F2E41"/>
<path d="M83.2456 91.059L83.4016 80.6569L76.9869 76.6582L70.0117 85.1904L83.2456 91.059Z" fill="#A0616A"/>
<path opacity="0.1" d="M83.245 91.059L83.6602 80.9161L76.9863 76.6582L79.2538 89.2105L83.245 91.059Z" fill="black"/>
<path d="M83.2656 83.8935C89.5662 83.8935 94.6738 78.7859 94.6738 72.4854C94.6738 66.1848 89.5662 61.0771 83.2656 61.0771C76.965 61.0771 71.8574 66.1848 71.8574 72.4854C71.8574 78.7859 76.965 83.8935 83.2656 83.8935Z" fill="#A0616A"/>
<path d="M98.8242 159.843L88.197 232.16H74.8637L76.6366 190.879L77.5697 169.174L74.8637 158.842C74.8637 158.842 73.6299 156.545 72.5905 153.762C71.4189 150.62 70.4935 146.854 71.8673 145.068C72.3727 144.41 73.6869 143.922 75.4728 143.56C76.564 143.337 77.8341 143.163 79.2053 143.028C87.0902 142.248 98.3058 142.735 98.3058 142.735L98.5909 152.144L98.749 157.398L98.8242 159.843Z" fill="#2F2E41"/>
<path d="M63.8245 242.395L71.4548 243.516L79.4116 214.619L68.1499 212.964L63.8245 242.395Z" fill="#A0616A"/>
<path d="M89.9921 246.067C90.1708 246.502 90.1063 247.811 90.0379 248.277C89.8276 249.707 88.4977 250.696 87.0674 250.486L63.4373 247.012C62.4616 246.868 61.7869 245.961 61.9304 244.985L62.075 244.001C62.075 244.001 61.3408 240.873 64.2832 237.582C64.2832 237.582 66.8549 240.876 71.9816 237.063L73.6507 234.869L82.1656 243.249L87.3582 244.678C88.4942 244.99 89.5443 244.977 89.9921 246.067Z" fill="#2F2E41"/>
<path d="M98.9912 147.781L97.5336 160.334L89.5844 186.787L76.4988 230.337L63.3088 228.399L75.1467 166.477L73.9745 155.859C73.9745 155.859 73.5928 154.804 73.1552 153.258C72.2867 150.202 71.1974 145.223 72.3958 142.684C72.5576 142.339 72.7608 142.04 73.0121 141.797C73.4835 141.34 74.4415 141.062 75.7251 140.915C81.0901 140.309 92.139 142.043 97.0555 142.894L98.9912 147.781Z" fill="#2F2E41"/>
<path d="M71.4782 82.9893L84.4383 89.2101C84.4383 89.2101 98.1759 129.905 98.1759 131.978C98.1759 134.052 102.064 135.348 99.7311 137.681C97.3983 140.013 104.073 141.989 100.477 143.853C96.8799 145.716 74.4437 155.908 71.9489 154.989C65.0681 152.454 72.2405 143.139 72.2405 143.139C72.2405 143.139 67.0718 138.977 67.8494 136.903C68.627 134.829 63.1838 95.1717 63.1838 95.1717L71.4782 82.9893Z" fill="#3F3D56"/>
<path d="M82.5689 75.2179L84.0363 78.1525C84.0363 78.1525 85.5036 72.8702 87.8513 71.6963C90.1991 70.5224 90.4925 68.7616 90.4925 68.7616C90.4925 68.7616 93.4272 72.5767 95.4814 71.6963C97.5357 70.8159 98.4161 70.229 96.0684 66.7074C93.7206 63.1858 94.3076 64.9466 94.3076 64.9466C94.3076 64.9466 92.2533 62.0119 92.5468 62.8923C92.8402 63.7727 90.786 60.5446 90.786 61.425C90.786 62.3054 89.3187 59.6642 89.3187 60.5446C89.3187 61.425 83.1559 58.4903 84.0363 59.6642C84.9167 60.8381 78.7539 57.3165 75.8192 62.0119C72.8846 66.7074 68.8153 65.8391 70.263 68.7677C71.7107 71.6963 71.1238 79.6199 71.1238 79.6199H75.171C75.171 79.6199 79.3408 71.6963 82.5689 75.2179Z" fill="#2F2E41"/>
<path d="M411.768 18.04H387.656V42.1513H411.768V18.04Z" fill="#E6E6E6"/>
<path d="M468.5 18.04L468.5 42.1513H444.389C444.389 28.8439 455.193 18.04 468.5 18.04Z" fill="#E6E6E6"/>
<path d="M428.078 42.151C434.344 42.151 439.424 37.071 439.424 30.8045C439.424 24.538 434.344 19.458 428.078 19.458C421.811 19.458 416.731 24.538 416.731 30.8045C416.731 37.071 421.811 42.151 428.078 42.151Z" fill="#CCCCCC"/>
<path d="M387.656 18.0398L377.019 10.9482V30.0954L387.656 42.151" fill="#F2F2F2"/>
<path d="M217.562 10.2099L230.9 9.80668C231.827 9.77868 231.915 8.32957 230.981 8.35783L217.642 8.76108C216.716 8.78908 216.627 10.2382 217.562 10.2099Z" fill="white"/>
<path d="M217.562 15.0771L230.9 14.6739C231.827 14.6459 231.915 13.1968 230.981 13.225L217.642 13.6283C216.716 13.6563 216.627 15.1054 217.562 15.0771Z" fill="white"/>
<path d="M217.562 19.9443L230.9 19.5411C231.827 19.5131 231.915 18.0639 230.981 18.0922L217.642 18.4955C216.716 18.5235 216.627 19.9726 217.562 19.9443Z" fill="white"/>
<path d="M187.601 11.4441C189.811 8.75185 193.811 11.4535 196.412 11.9097C197.934 12.1766 199.505 12.0357 200.789 11.1133C201.927 10.2965 202.743 9.06709 202.959 7.67474C203.102 6.75539 201.695 6.35924 201.551 7.28654C201.348 8.59612 200.54 9.74295 199.313 10.2872C197.831 10.9441 196.13 10.415 194.688 9.91309C192.117 9.01825 188.645 7.88232 186.568 10.4115C185.976 11.1322 187.004 12.1712 187.601 11.4441Z" fill="white"/>
<path d="M187.601 17.2849C189.811 14.5927 193.811 17.2943 196.412 17.7505C197.934 18.0174 199.505 17.8765 200.789 16.9541C201.927 16.1374 202.743 14.9079 202.959 13.5156C203.102 12.5962 201.695 12.2001 201.551 13.1274C201.348 14.4369 200.54 15.5838 199.313 16.1281C197.831 16.785 196.13 16.2558 194.688 15.7539C192.117 14.8591 188.645 13.7231 186.568 16.2523C185.976 16.973 187.004 18.012 187.601 17.2849Z" fill="white"/>
<path d="M148.828 137.532H115.184C112.958 137.532 111.147 135.721 111.147 133.495V85.5463C111.147 83.3198 112.958 81.5088 115.184 81.5088H148.828C151.054 81.5088 152.865 83.3198 152.865 85.5463V133.495C152.865 135.721 151.054 137.532 148.828 137.532Z" fill="#86E8DB"/>
<path d="M250.17 6.71459C250.873 12.6639 251.101 18.6652 250.827 24.6501C250.785 25.5776 252.225 25.8247 252.268 24.8861C252.548 18.7686 252.341 12.6412 251.622 6.55914C251.512 5.62758 250.059 5.77802 250.17 6.71459Z" fill="white"/>
<path d="M255.037 6.71459C255.74 12.6639 255.968 18.6652 255.695 24.6501C255.652 25.5776 257.093 25.8247 257.136 24.8861C257.416 18.7686 257.208 12.6412 256.49 6.55914C256.38 5.62758 254.927 5.77802 255.037 6.71459Z" fill="white"/>
<path d="M259.905 6.71459C260.608 12.6639 260.837 18.6652 260.563 24.6501C260.52 25.5776 261.961 25.8247 262.004 24.8861C262.284 18.7686 262.076 12.6412 261.358 6.55914C261.248 5.62758 259.795 5.77802 259.905 6.71459Z" fill="white"/>
<path d="M110.969 118.848C114.185 117.897 117.283 118.787 117.887 120.834C118.492 122.881 116.374 125.31 113.157 126.26C111.877 126.657 110.52 126.742 109.2 126.507L95.5214 130.362L93.8495 123.904L107.512 120.79C108.493 119.876 109.678 119.21 110.969 118.848Z" fill="#A0616A"/>
<path d="M86.7745 95.9615L84.6305 121.61L103.835 121.817L107.562 127.556C107.562 127.556 84.2853 141.033 77.2959 134.147C70.3066 127.26 67.1967 98.2804 73.4109 93.32C79.625 88.3595 86.7745 95.9615 86.7745 95.9615Z" fill="#3F3D56"/>
<path d="M118.755 99.7883L145.054 98.9932C146.881 98.938 147.056 96.0808 145.213 96.1365L118.913 96.9316C117.087 96.9868 116.912 99.844 118.755 99.7883Z" fill="white"/>
<path d="M118.755 109.325L145.054 108.53C146.881 108.475 147.056 105.618 145.213 105.674L118.913 106.469C117.087 106.524 116.912 109.381 118.755 109.325Z" fill="white"/>
<path d="M118.755 118.862L145.054 118.066C146.881 118.011 147.056 115.154 145.213 115.21L118.913 116.005C117.087 116.06 116.912 118.917 118.755 118.862Z" fill="white"/>
</g>
<defs>
<clipPath id="clip0_3779_12320">
<rect width="468" height="250.11" fill="white" transform="translate(0.5 0.445312)"/>
</clipPath>
</defs>
</svg>
